<?xml version="1.0" encoding="iso-8859-1"?>
<!-- Generator: Adobe Illustrator 19.0.0, SVG Export Plug-In . SVG Version: 6.00 Build 0)  -->
<svg version="1.1" id="Layer_1" xmlns="http://www.w3.org/2000/svg" xmlns:xlink="http://www.w3.org/1999/xlink" x="0px" y="0px"
	 viewBox="0 0 512.001 512.001" style="enable-background:new 0 0 512.001 512.001;" xml:space="preserve">
<path style="fill:#1D1D1F;" d="M512,273.982L512,273.982L512,273.982c-0.039-2.442-0.073-4.551-0.459-7.472
	c-0.465-3.519-0.945-5.392-1.555-7.766c-0.943-3.679-3.181-8.981-4.938-11.86c-0.945-1.551-2.207-3.626-3.32-5.061
	c-0.644-0.83-1.491-1.949-2.181-2.742c-0.965-1.108-2.272-2.574-3.333-3.592c-1.865-1.786-4.462-4.062-6.526-5.614
	c-2.205-1.657-5.331-3.611-7.678-5.059c-0.356-0.205-2.595-1.462-2.606-1.468c-1.149-0.624-2.221-1.185-3.715-1.893
	c-1.848-0.874-7.192-3.157-11.176-4.471c-5.386-1.777-8.394-2.601-13.998-3.833c-2.927-0.644-9.051-1.823-17.188-2.483
	c-7.562-0.614-13.076-0.428-16.765-0.295c-35.106-20.269-70.212-40.536-105.318-60.805c-0.086-0.571-0.18-1.164-0.291-1.828
	c-0.227-1.362-0.947-4.546-1.917-7.288c-1.026-2.901-2.133-5.431-3.29-7.52c-0.655-1.182-2.645-4.776-5.326-8.04
	c-2.401-2.922-3.76-4.356-6.615-6.978c-1.312-1.205-2.874-2.445-4.684-3.881c-0.709-0.563-1.675-1.265-2.521-1.836
	c-2.794-1.882-6.348-3.933-10.009-5.775c-4.184-2.105-8.16-3.59-9.857-4.222c-8.983-3.351-18.713-5.237-21.703-5.68
	c-1.715-0.254-3.994-0.66-5.719-0.842c-1.738-0.182-4.053-0.461-5.794-0.608c-1.751-0.147-4.094-0.261-5.848-0.373
	c-3.526-0.225-8.246-0.115-11.778-0.035c-1.16,0.027-11.664,0.333-23.385,2.861c-1.795,0.387-6,1.295-11.309,2.972
	c-3.195,1.009-7.356,2.654-10.464,3.908c0.298-0.13,0.609-0.168,0.93-0.11c-0.321-0.059-0.633-0.02-0.93,0.11
	c0,0-4.803,2.092-6.86,2.988c-4.117,1.793-9.605,4.185-13.722,5.977c-2.058,0.897-4.803,2.092-6.86,2.988
	c-4.117,1.793-9.605,4.185-13.722,5.978c-2.058,0.896-4.803,2.092-6.86,2.988c-4.117,1.793-9.605,4.185-13.722,5.978
	c-4.117,1.793-9.605,4.185-13.722,5.978c-2.058,0.897-4.803,2.092-6.86,2.988c-4.117,1.793-9.605,4.185-13.722,5.978
	c-2.058,0.896-4.803,2.092-6.86,2.988c-4.117,1.793-9.605,4.185-13.722,5.978c-2.058,0.897-4.803,2.092-6.86,2.988
	c-4.117,1.793-9.605,4.185-13.722,5.978c0.347-0.152,0.714-0.162,1.093-0.056c-0.379-0.107-0.746-0.095-1.093,0.056
	c-2.352,1.097-5.486,2.58-7.727,3.888c-2.23,1.301-5.09,3.234-7.149,4.792c-3.547,2.683-7.279,6.493-9.74,9.944
	c-3.131,4.389-5.077,8.312-6.715,13.539c-0.763,2.436-1.338,5.366-1.622,7.298c-0.198,1.348-0.359,3.159-0.459,4.518
	c-0.066,0.895-0.07,2.092-0.091,2.989L0,215.02l0,0l0,0c0,0.78,0.023,2.406,0.167,4.325c0.004,0.077,0.008,0.165,0.014,0.239
	c0.048,0.758,0.169,1.765,0.269,2.519c0.009,0.07,0.021,0.151,0.03,0.225c0.002,0.016,0.004,0.031,0.006,0.048
	c0.001,0.01,0.003,0.019,0.004,0.029c0.095,0.705,0.217,1.542,0.349,2.192c0.006,0.031,0.015,0.07,0.022,0.102
	c0.375,2.058,0.786,3.65,1.121,4.773c0.302,1.1,0.747,2.422,1.293,3.826c0.095,0.249,0.187,0.481,0.278,0.708
	c0.019,0.047,0.037,0.093,0.056,0.14c0.198,0.487,0.388,0.931,0.571,1.336c0.029,0.066,0.06,0.131,0.09,0.197
	c0.095,0.209,0.189,0.412,0.281,0.604c0.418,0.895,0.861,1.765,1.323,2.587c1.064,1.923,2.112,3.433,2.922,4.583
	c1.52,2.161,3.551,4.322,4.236,5.032c0.009,0.01,0.021,0.023,0.03,0.032c0.027,0.028,0.06,0.062,0.088,0.09
	c0.013,0.013,0.016,0.017,0.027,0.027c0.759,0.793,1.759,1.774,2.574,2.462c0.017,0.015,0.029,0.024,0.046,0.039
	c0.066,0.059,0.138,0.125,0.201,0.181c0.774,0.675,1.572,1.321,2.369,1.967c0.326,0.269,0.615,0.503,0.872,0.708
	c0.002,0.002,0.004,0.004,0.007,0.005c0.207,0.17,0.416,0.339,0.629,0.502c0.069,0.052,0.122,0.091,0.188,0.141
	c0.658,0.504,1.095,0.805,1.607,1.153c0.357,0.243,0.786,0.52,1.248,0.81c0.072,0.046,0.129,0.083,0.204,0.132
	c0.094,0.061,0.297,0.185,0.555,0.341c0.06,0.037,0.108,0.068,0.169,0.106c0.36,0.22,0.723,0.434,1.086,0.648
	c0.208,0.123,0.418,0.243,0.626,0.365c0.132,0.077,0.258,0.151,0.38,0.221c0.025,0.015,0.05,0.03,0.076,0.044
	c0.006,0.004,0.015,0.008,0.021,0.012c0.065,0.038,0.134,0.077,0.193,0.112c0.094,0.053,0.208,0.112,0.305,0.167
	c1.41,0.785,3.433,1.883,6.159,3.114c0.121,0.058,0.258,0.123,0.376,0.178c1.836,0.857,5.978,2.447,7.613,2.962
	c0.096,0.03,0.211,0.065,0.311,0.095c1.116,0.373,2.293,0.746,3.534,1.112c1.444,0.427,2.879,0.805,4.289,1.149
	c1.202,0.313,2.739,0.635,3.915,0.878c1.253,0.259,2.928,0.591,4.193,0.777c0.141,0.021,0.294,0.042,0.44,0.063
	c3.336,0.537,6.176,0.852,8.118,1.027c1.301,0.141,3.045,0.243,4.352,0.313c0.277,0.015,0.58,0.026,0.889,0.038
	c1.075,0.049,2.179,0.089,3.328,0.111c0.052,0.002,0.112,0.004,0.163,0.006c2.638,0.135,6.165-0.021,8.802-0.169
	c0.444-0.025,0.877-0.052,1.301-0.081c0.346-0.023,0.694-0.049,1.044-0.075c0.592-0.045,1.165-0.092,1.708-0.14
	c0.321-0.029,0.642-0.059,0.965-0.091c0.731-0.072,1.402-0.144,2.015-0.215c0.288-0.033,0.575-0.068,0.865-0.105
	c0.324-0.041,0.633-0.079,0.91-0.117c0.234-0.031,0.563-0.076,0.933-0.129c0.408-0.057,0.817-0.116,1.229-0.179
	c0.539-0.082,1.158-0.181,1.822-0.293c0.407-0.069,0.815-0.14,1.224-0.213c0.673-0.121,1.38-0.253,2.131-0.404
	c0.267-0.053,0.534-0.11,0.801-0.165c0.189-0.04,0.371-0.075,0.565-0.117c0.216-0.046,0.465-0.109,0.692-0.16
	c2.543-0.564,5.12-1.22,7.725-2.012c0.193-0.059,0.38-0.18,0.557-0.362c-0.179,0.181-0.365,0.303-0.557,0.362
	c9.961-3.029,19.919-6.059,29.879-9.089c2.377,2.479,5.37,4.814,9.013,6.917c17.774,10.262,44.85,11.747,65.299,4.521
	c9.209,5.317,18.419,10.634,27.628,15.95l-0.058,20.263c-0.023,7.943,5.22,15.897,15.717,21.957c2.129,1.23,4.42,2.3,6.788,3.278
	c-0.109,0.142-0.228,0.294-0.329,0.429c-0.505,0.671-1.116,1.613-1.551,2.333c-1.775,2.935-2.852,5.149-3.974,8.166
	c-1.38,3.712-2.042,7.315-2.048,7.351c-0.227,1.302-0.531,3.04-0.66,4.354c-0.232,2.386-0.239,2.689-0.307,5.587
	c-0.002,0.703,0.027,1.405,0.084,2.106l0,0c-0.055-0.701-0.086-1.403-0.084-2.106l-0.01,3.874c0,0.83,0.024,1.626,0.058,2.405
	c0.041,1.153,0.115,2.263,0.271,3.614c0.007,0.071,0.016,0.141,0.023,0.211c0.017,0.14,0.036,0.29,0.054,0.436
	c0.096,0.787,0.204,1.541,0.323,2.253c0.015,0.092,0.025,0.169,0.04,0.264c0.135,0.844,0.286,1.577,0.486,2.42
	c0.178,0.791,0.36,1.516,0.538,2.17c0.01,0.043,0.02,0.079,0.031,0.123c0.114,0.449,0.275,0.97,0.439,1.484
	c0.1,0.321,0.196,0.616,0.284,0.884c0.03,0.095,0.064,0.197,0.092,0.285c0.244,0.763,0.604,1.734,0.935,2.512
	c0.612,1.505,1.303,2.955,2.037,4.317c0.051,0.099,0.106,0.21,0.156,0.304c0.504,0.956,1.256,2.154,1.859,3.093
	c0.006,0.01,0.013,0.021,0.02,0.03c0.026,0.04,0.055,0.087,0.081,0.127c0.111,0.173,0.256,0.372,0.388,0.563
	c0.407,0.6,0.808,1.164,1.202,1.689c0.037,0.051,0.11,0.15,0.217,0.293c0.104,0.136,0.207,0.271,0.308,0.4
	c0.614,0.785,1.723,2.13,3.261,3.719c0.065,0.068,0.129,0.134,0.196,0.203c0.158,0.161,0.323,0.326,0.489,0.493
	c0.203,0.203,0.414,0.409,0.634,0.62c0.18,0.174,0.361,0.347,0.55,0.524c0.11,0.102,0.226,0.208,0.34,0.313
	c0.243,0.223,0.491,0.447,0.748,0.672c0.082,0.072,0.162,0.142,0.245,0.215c0.336,0.293,0.681,0.586,1.037,0.879
	c0.032,0.026,0.06,0.051,0.092,0.078c0.006,0.005,0.015,0.011,0.022,0.017c0.023,0.019,0.044,0.037,0.066,0.055
	c1.915,1.56,3.666,2.81,5.302,3.877c0.03,0.021,0.065,0.045,0.094,0.066c0.509,0.351,1.139,0.731,1.757,1.098
	c0.366,0.222,0.727,0.436,1.082,0.644c0.055,0.033,0.119,0.071,0.173,0.104c0.002,0.001,0.302,0.174,0.673,0.386
	c0.134,0.076,0.271,0.156,0.404,0.232c0.032,0.018,0.065,0.036,0.097,0.053c0.234,0.133,0.46,0.26,0.628,0.353
	c0.359,0.199,0.692,0.38,1.022,0.555c0.03,0.017,0.06,0.032,0.09,0.049l0,0c0.005,0.004,0.582,0.321,1.51,0.776
	c1.057,0.528,2.094,1.015,5.314,2.297c1.014,0.414,2.065,0.839,2.953,1.163c0.03,0.011,0.067,0.024,0.098,0.036
	c0.005,0.002,0.01,0.004,0.016,0.006c0.904,0.351,2.007,0.727,3.077,1.07c0.634,0.208,1.256,0.404,1.814,0.559
	c0.041,0.011,0.088,0.027,0.129,0.039c3.001,0.872,7.031,1.887,10.123,2.493c0.011,0.003,0.024,0.005,0.036,0.008
	c1.221,0.269,2.77,0.516,4.155,0.725c0.406,0.063,0.795,0.121,1.174,0.176c0.011,0.002,0.026,0.004,0.039,0.005
	c0.016,0.002,0.031,0.004,0.047,0.006c0.547,0.078,1.066,0.15,1.547,0.212c3.457,0.459,6.794,0.724,9.879,0.857
	c1.725,0.098,3.203,0.143,4.676,0.12c0.036,0,0.076-0.001,0.112-0.002c4.772,0.024,8.559-0.226,10.63-0.406
	c1.601-0.096,3.727-0.344,5.316-0.56c1.582-0.216,3.691-0.487,5.262-0.801c1.54-0.238,3.537-0.71,5.053-1.014
	c0.618-0.124,2.59-0.601,4.838-1.22c0.068-0.017,0.141-0.034,0.207-0.052c1.014-0.257,2.081-0.586,3.155-0.935
	c0.568-0.179,1.122-0.36,1.642-0.541c1.449-0.504,3.391-1.158,4.798-1.769c0.041-0.016,4.168-1.616,8.519-4.023
	c0.007-0.003,0.015-0.007,0.021-0.01c0.427-0.222,2.118-1.133,4.517-2.726c0.129-0.083,0.27-0.171,0.391-0.252
	c0.395-0.259,0.83-0.57,1.273-0.889c0.715-0.504,1.459-1.041,2.25-1.646l0,0c34.25-26.559,68.497-53.118,102.747-79.677l0,0
	c9.431-7.371,13.583-14.213,16.148-19.352c2.491-4.992,3.716-10.255,3.847-10.838c0.613-2.723,0.862-4.324,0.961-5.188
	c0.096-0.83,0.252-1.933,0.309-2.767c0.101-1.47,0.185-3.435,0.22-4.908L512,273.982L512,273.982L512,273.982z"/>
<g style="enable-background:new    ;">
	<g>
		<path style="fill:#2E2E30;" d="M311.782,160.91c-0.055,2.538-0.078,3.588-0.435,6.422c0.159-1.186,0.245-2.405,0.249-3.641
			C311.716,162.786,311.779,161.858,311.782,160.91z"/>
		<path style="fill:#2E2E30;" d="M311.792,157.035l-0.011,3.874c-0.003,0.948-0.065,1.877-0.187,2.781l0.01-3.874
			C311.728,158.912,311.79,157.984,311.792,157.035z"/>
	</g>
	<g>
		<path style="fill:#1D1D1F;" d="M170.735,104.402c0.595-0.259,1.243-0.155,1.922,0.366c32.717-14.249,78.056-11.99,106.319,4.328
			c2.716,1.567,5.275,3.267,7.649,5.091c12.551,9.646,17.661,21.032,16.189,32.013c4.88-1.04,8.817,5.056,8.793,13.615
			c0.121-0.906,0.184-1.834,0.187-2.781c-0.046-4.139-0.278-5.924-0.839-9.297c-0.227-1.362-0.947-4.546-1.917-7.288
			c-1.026-2.901-2.133-5.431-3.29-7.52c-0.655-1.182-2.645-4.776-5.326-8.04c-2.401-2.922-3.76-4.356-6.615-6.978
			c-1.312-1.205-2.874-2.445-4.684-3.88c-0.709-0.563-1.675-1.265-2.521-1.836c-2.794-1.882-6.348-3.933-10.009-5.775
			c-4.184-2.105-8.16-3.589-9.857-4.222c-8.983-3.351-18.713-5.237-21.703-5.68c-1.715-0.254-3.994-0.66-5.719-0.842
			c-1.738-0.182-4.053-0.461-5.794-0.608c-1.751-0.147-4.094-0.261-5.848-0.373c-3.526-0.225-8.246-0.115-11.778-0.035
			c-1.16,0.026-11.664,0.333-23.385,2.861c-1.795,0.387-6,1.295-11.309,2.971C178.004,101.504,173.842,103.147,170.735,104.402z"/>
		<path style="fill:#1D1D1F;" d="M33.515,164.178c4.117-1.793,9.605-4.185,13.722-5.978c2.058-0.896,4.803-2.092,6.861-2.988
			c4.117-1.793,9.605-4.185,13.722-5.978c2.058-0.896,4.803-2.092,6.861-2.988c4.117-1.793,9.605-4.185,13.722-5.978
			c2.058-0.896,4.803-2.092,6.861-2.988c4.117-1.793,9.605-4.185,13.722-5.978c4.117-1.793,9.605-4.185,13.722-5.978
			c2.058-0.896,4.803-2.092,6.86-2.988c4.117-1.793,9.605-4.185,13.722-5.978c2.058-0.896,4.803-2.092,6.86-2.988
			c4.117-1.793,9.605-4.185,13.722-5.978c2.058-0.896,6.86-2.988,6.86-2.988c0.595-0.259,1.244-0.155,1.922,0.366L35.437,164.544
			C34.759,164.022,34.111,163.919,33.515,164.178z"/>
	</g>
	<path style="fill:#3E3D43;" d="M306.431,146.787c36.764,21.225,73.527,42.451,110.292,63.677c-0.4-0.231-0.847-0.006-1.318,0.742
		l-112.591-65.005C304.104,145.927,305.328,146.15,306.431,146.787z"/>
	<path style="fill:#1D1D1F;" d="M26.019,258.462c-0.364-0.204-0.723-0.418-1.082-0.629c-0.363-0.214-0.727-0.429-1.086-0.648
		c-0.86-0.523-1.591-0.99-2.176-1.389c-1.165-0.793-1.869-1.27-5.921-4.696c-0.854-0.721-1.919-1.77-2.688-2.581
		c-1.089-1.146-2.497-2.722-3.454-3.981c-1.081-1.424-2.407-3.411-3.325-4.945c-1.975-3.297-3.717-7.797-4.419-10.538
		c-0.34-1.33-0.752-3.114-1.026-4.459c-0.151-0.741-0.291-1.743-0.39-2.493c-0.1-0.753-0.221-1.76-0.269-2.519
		c-0.087-1.368-0.156-3.193-0.181-4.564c0.038-13.318,10.462-26.452,30.224-35.066c-0.024,8.56,2.266,17.275,5.114,19.464
		c-29.748,12.964-35.655,37.481-13.178,54.755c1.958,1.506,4.076,2.912,6.325,4.21c20.668,11.933,52.685,14.99,79.101,6.955
		c0.478,0.525,0.937,0.703,1.362,0.573c-17.004,5.168-33.021,5.134-43.463,4.196c-4.166-0.374-12.427-1.378-20.957-3.894
		C34.664,263.302,28.824,260.033,26.019,258.462z"/>
	<path style="fill:#3E3D43;" d="M416.389,210.378c3.689-0.133,9.263-0.335,16.939,0.289c8.137,0.661,14.261,1.84,17.188,2.483
		c5.603,1.233,8.612,2.057,13.998,3.833c3.983,1.314,9.328,3.597,11.176,4.471c1.494,0.708,2.566,1.268,3.715,1.893
		c0.01,0.006,2.25,1.263,2.606,1.468c-0.752-0.434-1.587-0.433-2.468,0.078c-2.718-1.57-5.656-3.045-8.817-4.415
		c-16.694-7.239-36.367-10.162-55.322-9.273C415.749,210.66,416.079,210.392,416.389,210.378z"/>
	<g>
		<path style="fill:#1D1D1F;" d="M174.579,245.948c-21.878,6.654-43.752,13.308-65.63,19.962c1.544-0.469,2.659-4.975,2.678-11.683
			l61.959-18.847C173.568,242.089,173.983,246.129,174.579,245.948z"/>
		<polygon style="fill:#1D1D1F;" points="173.598,231.507 173.588,235.381 111.629,254.228 111.639,250.354 		"/>
	</g>
	<path style="fill:#3E3D43;" d="M175.209,209.925c-0.865,3.359-1.586,13.022-1.61,21.582l-61.959,18.847
		c0.024-8.56-1.746-17.465-3.954-19.889L175.209,209.925z"/>
	<g>
		<path style="fill:#1D1D1F;" d="M108.95,265.911c-2.511,0.705-5.867,1.625-8.417,2.171c-4.125,0.885-7.452,1.331-8.705,1.499
			c-1.916,0.257-4.998,0.609-8.806,0.824c-2.637,0.148-6.164,0.304-8.802,0.169c-1.313-0.067-3.067-0.085-4.38-0.155
			c-1.307-0.07-3.05-0.17-4.352-0.313c-2.573-0.279-5.998-0.715-8.559-1.09c-1.266-0.185-2.94-0.517-4.193-0.777
			c-1.245-0.258-2.906-0.603-4.133-0.934c-2.388-0.641-5.557-1.558-7.914-2.301c-1.635-0.515-5.777-2.104-7.613-2.962
			c-2.084-0.973-4.843-2.318-6.841-3.459c-0.989-0.566-2.757-1.623-3.107-1.848c-1.356-0.871-2.037-1.309-3.249-2.237
			c-0.213-0.163-0.422-0.331-0.629-0.502c-1.085-0.891-2.191-1.757-3.249-2.681c-0.845-0.737-1.918-1.78-2.712-2.571
			c-0.026-0.025-2.65-2.677-4.491-5.295c-1.015-1.444-2.407-3.422-3.735-6.122c-0.822-1.67-1.752-3.563-2.977-7.519
			c-0.461-1.489-1.112-3.988-1.598-7.437C0.046,219.249,0,216.19,0,215.02c-0.026,9.273,4.981,18.635,15.377,26.627
			c2.178,2.024,4.588,3.277,7.122,4.741c23.285,13.446,59.375,16.893,89.128,7.84C111.609,260.936,110.494,265.441,108.95,265.911z"
			/>
		<path style="fill:#1D1D1F;" d="M0,215.02l0.01-3.874c-0.026,9.273,4.981,18.635,15.377,26.627
			c2.178,2.024,4.588,3.277,7.122,4.741c23.285,13.446,59.375,16.893,89.128,7.84l-0.012,3.874
			c-29.755,9.053-65.843,5.607-89.128-7.84c-2.535-1.463-4.944-2.716-7.122-4.741C4.982,233.656-0.026,224.293,0,215.02z"/>
	</g>
	<path style="fill:#3E3D43;" d="M0.012,211.145c0.022-0.897,0.026-2.094,0.091-2.989c0.099-1.358,0.261-3.17,0.459-4.518
		c0.283-1.93,0.858-4.861,1.622-7.298c1.639-5.227,3.584-9.149,6.715-13.539c2.461-3.451,6.194-7.261,9.74-9.944
		c2.059-1.558,4.919-3.491,7.149-4.792c2.242-1.308,5.376-2.791,7.727-3.888c0.595-0.259,1.244-0.156,1.923,0.366
		C5.689,177.507-0.217,202.024,22.26,219.298c1.958,1.506,4.076,2.912,6.325,4.21c20.668,11.933,52.685,14.99,79.101,6.955
		c2.207,2.424,3.978,11.331,3.954,19.889c-29.755,9.053-65.843,5.607-89.128-7.84c-2.535-1.463-4.944-2.716-7.122-4.741
		C4.993,229.782-0.016,220.419,0.012,211.145z"/>
	<g>
		<path style="fill:#1D1D1F;" d="M301.423,319.23c-29.673-17.132-59.346-34.264-89.02-51.395c-12.644-7.3-25.288-14.6-37.932-21.9
			c-0.539-0.311-0.902-4.257-0.885-10.553l121.681,70.253C295.251,311.93,297.779,317.125,301.423,319.23z"/>
		<polygon style="fill:#1D1D1F;" points="295.281,301.76 295.269,305.635 173.588,235.381 173.598,231.507 		"/>
		<path style="fill:#1D1D1F;" d="M511.99,277.856c-0.036,1.473-0.118,3.438-0.22,4.908c-0.057,0.833-0.213,1.938-0.31,2.767
			c-0.1,0.865-0.348,2.467-0.961,5.188c-0.132,0.583-1.356,5.847-3.847,10.838c-2.564,5.138-6.717,11.981-16.148,19.352
			c2.163-1.677,3.645-6.183,3.662-12.098C506.156,299.519,511.958,288.649,511.99,277.856z"/>
		<path style="fill:#1D1D1F;" d="M512,273.982l-0.012,3.874c-0.03,10.793-5.834,21.663-17.823,30.956l0.011-3.874
			C506.166,295.645,511.97,284.775,512,273.982z"/>
		<path style="fill:#1D1D1F;" d="M305.82,285.333c-5.795,0.511-10.515,7.867-10.539,16.427l-121.681-70.253
			c0.024-8.56,0.746-18.223,1.61-21.582L305.82,285.333z"/>
	</g>
	<path style="fill:#3E3D43;" d="M482.011,224.816c2.347,1.448,5.473,3.401,7.678,5.059c2.065,1.552,4.661,3.828,6.526,5.614
		c1.061,1.017,2.368,2.483,3.333,3.592c0.69,0.793,1.537,1.911,2.181,2.742c1.113,1.435,2.374,3.511,3.32,5.061
		c1.756,2.879,3.993,8.181,4.938,11.86c0.609,2.374,1.09,4.247,1.555,7.766c0.386,2.922,0.42,5.031,0.459,7.472
		c-0.03,10.793-5.834,21.663-17.823,30.956c0.024-8.56-3.028-16.833-6.817-18.474c24.499-18.991,20.451-45.248-7.817-61.568
		C480.424,224.382,481.259,224.382,482.011,224.816z"/>
	<g>
		<path style="fill:#1D1D1F;" d="M490.504,320.909c-34.25,26.559-68.498,53.118-102.747,79.678
			c2.163-1.678,3.645-6.183,3.662-12.098l102.747-79.677C494.149,314.726,492.667,319.232,490.504,320.909z"/>
		<polygon style="fill:#1D1D1F;" points="494.177,304.937 494.166,308.812 391.419,388.489 391.43,384.615 		"/>
	</g>
	<path style="fill:#3E3D43;" d="M487.361,286.463c3.788,1.643,6.841,9.916,6.817,18.474L391.43,384.614
		c0.024-8.56-3.028-16.832-6.818-18.474L487.361,286.463z"/>
	<path style="fill:#2E2E30;" d="M288.186,409.217c-2.775-1.109-4.989-2.326-4.999-2.332l0,0c-0.612-0.337-1.229-0.667-1.836-1.011
		c-2.772-1.571-5.841-3.434-9.487-6.406c-5.088-4.147-8.113-8.349-8.24-8.526c-0.471-0.66-1.119-1.526-1.558-2.206
		c-0.617-0.957-1.427-2.243-1.96-3.25c-0.681-1.289-1.509-3.05-2.094-4.385c-0.353-0.806-0.765-1.908-1.033-2.748
		c-0.253-0.794-0.612-1.846-0.817-2.653c-0.526-2.069-0.816-3.209-1.056-4.713c-0.683-4.275-0.714-6.018-0.771-9.182
		c0.02-6.864,2.808-13.795,8.591-20.224c-0.024,8.56,3.355,16.531,7.547,17.801c-13.786,15.326-8.401,33.864,12.265,45.795
		c2.25,1.3,4.681,2.52,7.289,3.65c29.903,12.968,72.212,9.467,94.485-7.812c1.171,0.507,2.275,0.322,3.244-0.429
		c-4.418,3.372-7.798,5.184-8.431,5.514c-2.514,1.307-5.941,2.903-8.54,4.033c-1.406,0.612-3.349,1.265-4.798,1.769
		c-3.599,1.253-8.768,2.531-9.843,2.748c-1.536,0.308-3.572,0.791-5.122,1.026c-3.142,0.478-7.342,1.075-10.51,1.35
		c-4.108,0.356-14.953,0.991-26.891-0.789c-1.616-0.242-3.773-0.555-5.368-0.906c-3.092-0.68-7.194-1.686-10.246-2.527
		c-1.539-0.425-3.548-1.136-5.047-1.682C291.514,410.591,289.618,409.789,288.186,409.217z"/>
	<g>
		<path style="fill:#1D1D1F;" d="M387.757,400.586c-1.057,0.76-2.435,1.819-3.523,2.536c-1.336,0.88-3.158,1.996-4.552,2.78
			c-4.487,2.524-8.853,4.215-8.895,4.231c-2.887,1.094-6.48,2.454-9.595,3.245c-3.003,0.762-7.035,1.671-10.072,2.282
			c-1.574,0.316-3.698,0.589-5.289,0.806c-1.589,0.216-3.715,0.464-5.316,0.56c-3.22,0.194-7.517,0.358-10.742,0.408
			c-2.935,0.045-5.888-0.18-10.781-0.552c-0.045-0.003-4.871-0.413-10.647-1.534c-3.109-0.603-7.209-1.635-10.249-2.519
			c-1.523-0.443-3.542-1.092-5.02-1.667c-6.245-2.427-7.236-2.926-8.735-3.68c-0.724-0.364-1.444-0.747-2.267-1.202
			c-0.572-0.317-1.799-1.022-1.804-1.025c-0.906-0.55-2.139-1.244-3.011-1.846c-1.678-1.158-3.911-2.72-5.485-4.015
			c-3.459-2.845-5.512-5.239-6.738-6.668c-2.497-2.912-5.867-8.05-7.836-13.739c-0.782-2.26-2.86-8.264-2.865-17.184
			c-0.032,11.568,7.8,22.94,22.417,31.378c2.536,1.464,4.703,2.855,8.207,4.109c33.703,14.612,81.352,10.669,106.459-8.802
			C391.402,394.403,389.922,398.908,387.757,400.586z"/>
		<path style="fill:#1D1D1F;" d="M254.336,361.803l0.01-3.874c-0.032,11.568,7.8,22.94,22.417,31.378
			c2.536,1.464,4.703,2.855,8.207,4.109c33.703,14.612,81.352,10.669,106.459-8.802l-0.011,3.874
			c-25.107,19.471-72.756,23.414-106.459,8.802c-3.504-1.256-5.672-2.645-8.207-4.109
			C262.137,384.744,254.303,373.371,254.336,361.803z"/>
	</g>
</g>
<g style="enable-background:new    ;">
	<path style="fill:#2E2E30;" d="M238.702,207.212l-0.099,34.874c-0.022,7.841-5.176,15.67-15.471,21.653
		c-20.724,12.044-54.43,12.044-75.289,0c-10.497-6.061-15.739-14.015-15.717-21.957l0.099-34.874
		c-0.023,7.943,5.22,15.897,15.717,21.957c20.859,12.044,54.566,12.043,75.289,0C233.526,222.882,238.68,215.052,238.702,207.212z"
		/>
	<path id="SVGCleanerId_0" style="fill:#3E3D43;" d="M222.985,185.254c20.859,12.044,20.969,31.567,0.246,43.611
		c-20.724,12.044-54.43,12.044-75.289,0c-20.859-12.044-20.969-31.567-0.246-43.611C168.419,173.21,202.126,173.21,222.985,185.254z
		"/>
	<path style="fill:#2E2E30;" d="M347.288,269.903l-0.099,34.874c-0.022,7.841-5.176,15.67-15.471,21.653
		c-20.724,12.044-54.43,12.044-75.289,0c-10.497-6.061-15.739-14.015-15.717-21.957l0.099-34.874
		c-0.023,7.943,5.22,15.897,15.717,21.957c20.859,12.044,54.566,12.043,75.289,0C342.112,285.573,347.266,277.744,347.288,269.903z"
		/>
	<path id="SVGCleanerId_1" style="fill:#3E3D43;" d="M331.571,247.946c20.859,12.044,20.969,31.567,0.246,43.611
		c-20.724,12.044-54.43,12.044-75.289,0s-20.969-31.567-0.246-43.611C277.005,235.902,310.711,235.903,331.571,247.946z"/>
	<path style="fill:#1D1D1F;" d="M347.288,269.903l-0.099,34.874c-0.022,7.841-5.176,15.67-15.471,21.653
		c-20.724,12.044-54.43,12.044-75.289,0c-10.497-6.061-15.739-14.015-15.717-21.957l0.099-34.874
		c-0.023,7.943,5.22,15.897,15.717,21.957c20.859,12.044,54.566,12.043,75.289,0C342.112,285.573,347.266,277.744,347.288,269.903z"
		/>
	<g>
		<path style="fill:#3E3D43;" d="M266.239,325.959c1.057-1.174,2.466-2.741,3.523-3.916c0.527-0.587,1.231-1.368,1.759-1.954
			c1.051-1.168,2.453-2.726,3.504-3.895c2.877-3.198,5.753-6.395,8.631-9.593c1.012-1.125,2.362-2.625,3.374-3.75
			c0.5-0.555,1.166-1.296,1.666-1.851c0.984-1.094,2.296-2.552,3.281-3.646c0.962-1.069,2.244-2.495,3.206-3.564
			c0.472-0.524,1.1-1.223,1.572-1.747c0.923-1.026,2.153-2.393,3.076-3.418c1.702-1.892,3.766-3.095,5.989-3.292l-35.246,39.174
			C268.966,324.02,267.472,324.589,266.239,325.959z"/>
		<path style="fill:#3E3D43;" d="M254.347,357.929c0.068-2.897,0.075-3.201,0.307-5.587c0.128-1.315,0.433-3.053,0.66-4.354
			c0.006-0.034,0.667-3.639,2.048-7.351c1.122-3.018,2.2-5.23,3.974-8.166c0.435-0.719,1.046-1.662,1.551-2.333
			c0.966-1.284,2.308-2.957,3.351-4.179c1.233-1.37,2.727-1.94,4.334-1.451c-13.786,15.326-8.401,33.864,12.265,45.795
			c2.25,1.3,4.681,2.52,7.289,3.65c29.903,12.968,72.212,9.467,94.485-7.812c3.788,1.643,6.842,9.915,6.818,18.474
			c-25.107,19.471-72.756,23.414-106.459,8.802c-3.504-1.256-5.672-2.645-8.207-4.109
			C262.148,380.869,254.315,369.497,254.347,357.929z"/>
	</g>
	<path style="fill:#2E2E30;" d="M479.543,224.894c28.268,16.32,32.317,42.577,7.817,61.568
		c-34.249,26.559-68.499,53.119-102.748,79.678c-22.273,17.279-64.582,20.78-94.485,7.812c-2.608-1.13-5.039-2.351-7.289-3.65
		c-20.666-11.932-26.051-30.469-12.265-45.795c11.749-13.058,23.498-26.116,35.246-39.174
		c-43.537-25.136-87.074-50.272-130.611-75.408c-22.507,6.846-45.016,13.693-67.523,20.538c-26.416,8.036-58.432,4.977-79.101-6.955
		c-2.249-1.299-4.367-2.704-6.325-4.21c-22.477-17.274-16.571-41.791,13.178-54.755c45.739-19.925,91.479-39.85,137.219-59.775
		c32.717-14.249,78.056-11.99,106.319,4.328c2.716,1.567,5.275,3.267,7.649,5.091c12.551,9.646,17.661,21.032,16.189,32.013
		c37.53,21.669,75.061,43.337,112.591,65.005c18.953-0.889,38.627,2.034,55.322,9.273
		C473.888,221.849,476.826,223.325,479.543,224.894z"/>
	<path style="fill:#3E3D43;" d="M251.841,122.725c-17.283-9.979-45.205-9.979-62.377,0c-17.166,9.976-17.081,26.153,0.204,36.131
		c17.278,9.975,45.21,9.975,62.377,0C269.216,148.876,269.12,132.7,251.841,122.725"/>
	<path style="fill:#2E2E30;" d="M245.105,125.459c-13.539-7.816-35.41-7.816-48.86,0c-13.446,7.814-13.379,20.485,0.159,28.301
		c13.535,7.814,35.414,7.814,48.86,0C258.715,145.944,258.639,133.273,245.105,125.459"/>
	<path style="fill:#1D1D1F;" d="M238.702,207.212l-0.099,34.874c-0.022,7.841-5.176,15.67-15.471,21.653
		c-20.724,12.044-54.43,12.044-75.289,0c-10.497-6.061-15.739-14.015-15.717-21.957l0.099-34.874
		c-0.023,7.943,5.22,15.897,15.717,21.957c20.859,12.044,54.566,12.043,75.289,0C233.526,222.882,238.68,215.052,238.702,207.212z"
		/>
	<g>
		<path id="SVGCleanerId_0_1_" style="fill:#3E3D43;" d="M222.985,185.254c20.859,12.044,20.969,31.567,0.246,43.611
			c-20.724,12.044-54.43,12.044-75.289,0c-20.859-12.044-20.969-31.567-0.246-43.611C168.419,173.21,202.126,173.21,222.985,185.254
			z"/>
	</g>
	<g>
		<path id="SVGCleanerId_1_1_" style="fill:#3E3D43;" d="M331.571,247.946c20.859,12.044,20.969,31.567,0.246,43.611
			c-20.724,12.044-54.43,12.044-75.289,0s-20.969-31.567-0.246-43.611C277.005,235.902,310.711,235.903,331.571,247.946z"/>
	</g>
	<path style="fill:#2E2E30;" d="M318.71,253.816c13.71,7.916,13.783,20.748,0.161,28.663s-35.775,7.916-49.485,0
		c-13.71-7.915-13.783-20.748-0.161-28.663C282.847,245.9,305.001,245.9,318.71,253.816z"/>
</g>
<path style="fill:#E0E0E2;" d="M467.098,270.251l0.018-6.258c-0.001,0.192-0.032,0.385-0.049,0.577
	c0.28-3.207-1.68-6.471-5.924-8.92c-1.323-0.763-2.79-1.388-4.338-1.897c2.656-0.568,5.151-1.459,7.279-2.696
	c3.912-2.273,5.87-5.249,5.879-8.228l0.018-6.258c0,0.192-0.032,0.384-0.049,0.576c0.28-3.207-1.68-6.47-5.924-8.92
	c-7.926-4.576-20.732-4.574-28.607,0.003c-3.924,2.281-5.881,5.267-5.876,8.254c0-0.009-0.002-0.019-0.002-0.028l-0.018,6.258
	c-0.008,3.017,1.984,6.039,5.972,8.341c1.325,0.764,2.794,1.391,4.346,1.899c-2.658,0.569-5.156,1.46-7.286,2.698
	c-3.925,2.282-5.883,5.268-5.879,8.257c0-0.009-0.002-0.018-0.002-0.027l-0.018,6.258c-0.008,3.017,1.983,6.038,5.97,8.34
	c7.926,4.576,20.736,4.576,28.611,0C465.131,276.206,467.09,273.23,467.098,270.251z M385.275,280.229
	c7.926,4.576,20.737,4.576,28.611,0c3.911-2.273,5.868-5.246,5.876-8.224l0.018-6.258c-0.001,0.187-0.031,0.373-0.047,0.559
	c0.272-3.202-1.691-6.459-5.927-8.905c-1.324-0.764-2.791-1.389-4.34-1.898c2.658-0.568,5.155-1.46,7.286-2.698
	c3.913-2.274,5.871-5.249,5.88-8.229l0.018-6.258c0,0.189-0.031,0.377-0.048,0.567c0.275-3.203-1.685-6.461-5.919-8.907
	c-7.926-4.576-20.737-4.576-28.612,0c-3.924,2.281-5.881,5.268-5.876,8.257c0-0.009-0.002-0.019-0.002-0.029l-0.018,6.258
	c-0.008,3.019,1.984,6.042,5.972,8.344c1.322,0.763,2.789,1.388,4.337,1.896c-2.655,0.568-5.15,1.459-7.279,2.696
	c-3.925,2.282-5.882,5.268-5.879,8.257c0-0.009-0.002-0.018-0.002-0.027l-0.018,6.258
	C379.296,274.905,381.287,277.926,385.275,280.229z M219.406,208.868l-0.014,4.993l-15.799,9.181l-18.069-10.431l-17.951,10.432
	l-15.905-9.183l0.015-4.993l13.634-7.923l-13.762-7.945l0.015-4.993l15.799-9.181l18.064,10.429l17.951-10.431l15.905,9.183
	l-0.015,4.993l-13.634,7.923L219.406,208.868z"/>
<path style="fill:#C6C5CB;" d="M469.981,236.569l-0.018,6.258c-0.008,2.98-1.967,5.955-5.879,8.228
	c-7.875,4.576-20.681,4.574-28.607-0.003c-3.988-2.302-5.981-5.324-5.972-8.341l0.018-6.258c-0.008,3.017,1.984,6.039,5.972,8.341
	c7.926,4.576,20.732,4.579,28.607,0.003C468.014,242.525,469.973,239.549,469.981,236.569z"/>
<path style="fill:#E0E0E2;" d="M464.009,228.225c7.926,4.576,7.968,11.997,0.093,16.572s-20.681,4.574-28.607-0.003
	c-7.926-4.576-7.968-11.991-0.093-16.567C443.276,223.652,456.082,223.649,464.009,228.225z"/>
<path style="fill:#C6C5CB;" d="M422.648,238.317l-0.018,6.258c-0.008,2.98-1.967,5.956-5.88,8.229
	c-7.875,4.576-20.685,4.576-28.607,0.003c-3.989-2.302-5.981-5.325-5.972-8.344l0.018-6.258c-0.008,3.019,1.984,6.042,5.972,8.344
	c7.921,4.574,20.732,4.574,28.607-0.003C420.681,244.273,422.64,241.297,422.648,238.317z"/>
<path style="fill:#E0E0E2;" d="M416.68,229.977c7.922,4.574,7.963,11.993,0.088,16.57c-7.875,4.576-20.685,4.576-28.607,0.003
	c-7.926-4.576-7.968-11.997-0.093-16.572C395.943,225.402,408.754,225.402,416.68,229.977z"/>
<path style="fill:#C6C5CB;" d="M467.116,263.993l-0.018,6.258c-0.008,2.98-1.967,5.955-5.879,8.228
	c-7.875,4.576-20.685,4.576-28.611,0c-3.987-2.302-5.978-5.323-5.97-8.34l0.018-6.258c-0.008,3.017,1.983,6.038,5.97,8.34
	c7.926,4.576,20.736,4.576,28.611,0C465.149,269.948,467.108,266.972,467.116,263.993z"/>
<path style="fill:#E0E0E2;" d="M461.144,255.649c7.926,4.576,7.968,11.997,0.093,16.572c-7.875,4.576-20.685,4.576-28.611,0
	c-7.926-4.576-7.963-11.993-0.089-16.57C440.411,251.074,453.217,251.072,461.144,255.649z"/>
<path style="fill:#C6C5CB;" d="M419.78,265.745l-0.018,6.258c-0.008,2.978-1.966,5.952-5.876,8.224
	c-7.875,4.576-20.685,4.576-28.611,0c-3.987-2.302-5.978-5.323-5.97-8.34l0.018-6.258c-0.008,3.017,1.983,6.038,5.97,8.34
	c7.926,4.576,20.737,4.576,28.611,0C417.814,271.697,419.771,268.724,419.78,265.745z"/>
<path style="fill:#E0E0E2;" d="M413.805,257.4c7.926,4.576,7.973,11.993,0.098,16.57c-7.875,4.576-20.685,4.576-28.611,0
	c-7.926-4.576-7.963-11.993-0.089-16.57C393.078,252.824,405.879,252.824,413.805,257.4z"/>
<polygon style="fill:#ACABB1;" points="219.289,188.025 219.275,193.018 201.324,203.45 201.338,198.457 "/>
<g>
	<polygon style="fill:#C6C5CB;" points="169.633,198.455 169.619,203.448 151.554,193.018 151.569,188.025 	"/>
	<polygon style="fill:#C6C5CB;" points="203.608,218.069 203.594,223.063 185.525,212.631 185.54,207.638 	"/>
</g>
<polygon style="fill:#ACABB1;" points="219.407,208.889 219.392,213.883 203.594,223.063 203.608,218.069 "/>
<polygon style="fill:#C6C5CB;" points="167.588,218.071 167.573,223.063 151.668,213.881 151.682,208.887 "/>
<polygon style="fill:#ACABB1;" points="185.54,207.638 185.525,212.631 167.573,223.063 167.588,218.071 "/>
<polygon style="fill:#E0E0E2;" points="219.289,188.025 201.338,198.457 219.407,208.889 203.608,218.069 185.54,207.638 
	167.588,218.071 159.637,213.48 151.682,208.887 169.633,198.455 151.569,188.025 167.367,178.844 185.432,189.274 203.383,178.841 
	"/>
<g style="enable-background:new    ;">
	<g>
		<path style="fill:#E0E0E2;" d="M243.57,124.77c12.785,7.381,12.852,19.347,0.151,26.73c-12.702,7.381-33.361,7.381-46.146,0
			c-12.785-7.381-12.852-19.347-0.151-26.73C210.126,117.389,230.784,117.389,243.57,124.77z"/>
		<path style="fill:#E0E0E2;" d="M250.211,119.949c0.187-4.552-2.723-9.143-8.739-12.618c-11.622-6.71-30.402-6.71-41.949,0
			c-5.754,3.344-8.624,7.723-8.618,12.106c0-0.014-0.001-0.027-0.001-0.042l-0.055,3.539c-0.013,4.425,2.908,8.858,8.757,12.234
			c11.622,6.71,30.402,6.71,41.949,0c5.736-3.334,8.608-7.696,8.62-12.065l0.055-3.539
			C250.227,119.692,250.217,119.821,250.211,119.949z"/>
	</g>
	<path style="fill:#C6C5CB;" d="M250.228,119.565l-0.055,3.539c-0.013,4.369-2.884,8.731-8.62,12.065
		c-11.547,6.71-30.327,6.71-41.949,0c-5.848-3.376-8.77-7.809-8.757-12.234l0.055-3.539c-0.013,4.425,2.908,8.858,8.757,12.234
		c11.622,6.71,30.402,6.71,41.949,0C247.344,128.296,250.216,123.934,250.228,119.565z"/>
	<path style="fill:#E0E0E2;" d="M241.471,107.331c11.622,6.71,11.683,17.588,0.137,24.299c-11.547,6.71-30.327,6.71-41.949,0
		c-11.622-6.71-11.683-17.588-0.137-24.299C211.069,100.621,229.849,100.621,241.471,107.331z"/>
</g>
<g style="enable-background:new    ;">
	<g>
		<path style="fill:#E0E0E2;" d="M316.998,252.61c12.785,7.381,12.852,19.347,0.151,26.73c-12.702,7.381-33.361,7.381-46.146,0
			c-12.785-7.381-12.852-19.348-0.151-26.73C283.554,245.229,304.212,245.229,316.998,252.61z"/>
		<path style="fill:#E0E0E2;" d="M323.638,247.79c0.187-4.552-2.723-9.143-8.739-12.618c-11.622-6.71-30.402-6.71-41.949,0
			c-5.754,3.344-8.624,7.723-8.618,12.106c0-0.014-0.001-0.027-0.001-0.042l-0.055,3.539c-0.013,4.425,2.908,8.858,8.757,12.234
			c11.622,6.71,30.402,6.71,41.949,0c5.736-3.333,8.608-7.696,8.62-12.065l0.055-3.539
			C323.655,247.534,323.644,247.661,323.638,247.79z"/>
	</g>
	<path style="fill:#C6C5CB;" d="M323.655,247.406l-0.055,3.539c-0.013,4.369-2.884,8.731-8.62,12.065
		c-11.547,6.71-30.327,6.71-41.949,0c-5.848-3.376-8.77-7.809-8.757-12.234l0.055-3.539c-0.013,4.425,2.908,8.858,8.757,12.234
		c11.622,6.71,30.402,6.71,41.949,0C320.771,256.136,323.643,251.775,323.655,247.406z"/>
	<path style="fill:#E0E0E2;" d="M314.898,235.172c11.622,6.71,11.683,17.588,0.137,24.299c-11.547,6.71-30.327,6.71-41.949,0
		c-11.622-6.71-11.683-17.588-0.137-24.299C284.496,228.462,303.277,228.462,314.898,235.172z"/>
</g>
<path style="fill:#E0E0E2;" d="M312.034,181.821l-15.582-8.997c-2.295-1.326-6.004-1.326-8.285,0
	c-1.135,0.659-1.699,1.523-1.697,2.388c0-0.003-0.001-0.006-0.001-0.009l-0.017,5.969c-0.002,0.874,0.592,1.75,1.747,2.418
	l15.582,8.997c2.295,1.326,5.987,1.325,8.264,0.003c1.133-0.659,1.7-1.52,1.702-2.383l0.017-5.969c0,0.121-0.038,0.242-0.061,0.362
	C313.889,183.61,313.349,182.581,312.034,181.821z"/>
<path style="fill:#D8D8DA;" d="M286.451,181.174l0.017-5.969c-0.002,0.874,0.574,1.75,1.731,2.418v5.969
	C287.042,182.923,286.449,182.048,286.451,181.174z"/>
<polygon style="fill:#C6C5CB;" points="303.781,186.619 303.781,192.587 288.199,183.591 288.199,177.622 "/>
<path style="fill:#ACABB1;" d="M313.763,184.238l-0.017,5.969c-0.002,0.863-0.57,1.724-1.702,2.383
	c-2.276,1.323-5.969,1.323-8.264-0.003v-5.969c2.295,1.325,6.005,1.325,8.28,0.003C313.195,185.963,313.761,185.101,313.763,184.238
	z"/>
<g>
	<path style="fill:#E0E0E2;" d="M312.034,181.822c2.295,1.325,2.308,3.474,0.027,4.799c-2.276,1.323-5.985,1.323-8.28-0.003
		l-15.582-8.997c-2.295-1.326-2.308-3.474-0.031-4.796c2.281-1.326,5.989-1.326,8.286,0L312.034,181.822z"/>
	<path style="fill:#E0E0E2;" d="M347.613,202.577l-15.582-8.997c-2.295-1.326-6.004-1.326-8.285,0
		c-1.134,0.659-1.699,1.523-1.697,2.388c0-0.003-0.001-0.006-0.001-0.009l-0.017,5.969c-0.002,0.874,0.592,1.75,1.747,2.418
		l15.582,8.997c2.295,1.326,5.987,1.325,8.264,0.003c1.133-0.659,1.7-1.52,1.702-2.383l0.017-5.969c0,0.121-0.038,0.242-0.061,0.362
		C349.469,204.366,348.929,203.337,347.613,202.577z"/>
</g>
<path style="fill:#D8D8DA;" d="M322.03,201.93l0.017-5.969c-0.002,0.874,0.574,1.75,1.731,2.418v5.969
	C322.622,203.679,322.028,202.804,322.03,201.93z"/>
<polygon style="fill:#C6C5CB;" points="339.36,207.375 339.36,213.343 323.777,204.346 323.777,198.378 "/>
<path style="fill:#ACABB1;" d="M349.343,204.994l-0.017,5.969c-0.002,0.863-0.57,1.724-1.702,2.383
	c-2.276,1.323-5.969,1.323-8.264-0.003v-5.969c2.295,1.325,6.005,1.325,8.28,0.003C348.773,206.719,349.34,205.857,349.343,204.994z
	"/>
<path style="fill:#E0E0E2;" d="M347.614,202.577c2.295,1.326,2.308,3.474,0.027,4.799c-2.275,1.323-5.985,1.323-8.28-0.003
	l-15.582-8.997c-2.295-1.326-2.308-3.474-0.031-4.796c2.281-1.326,5.989-1.326,8.286,0L347.614,202.577z"/>
<g>
</g>
<g>
</g>
<g>
</g>
<g>
</g>
<g>
</g>
<g>
</g>
<g>
</g>
<g>
</g>
<g>
</g>
<g>
</g>
<g>
</g>
<g>
</g>
<g>
</g>
<g>
</g>
<g>
</g>
</svg>
