<svg viewBox="0 0 128 128" xmlns="http://www.w3.org/2000/svg" xmlns:xlink="http://www.w3.org/1999/xlink"><defs><path id="0" d="m0 100h100v-100h-100z"/><mask id="1" fill="#fff"><use xlink:href="#0"/></mask></defs><g fill="none" fill-rule="evenodd"><path d="m108.88 18.683c24.908 24.906 24.908 65.29 0 90.2-24.908 24.909-65.29 24.911-90.2 0-24.906-24.906-24.908-65.29 0-90.2 24.906-24.91 65.29-24.91 90.2 0" fill="#30afb3"/><path d="m81.19 68.51l-16.09-13.229 11.906-11.907-13.218-32.685-16.535 16.534-4.899-4.16-42.31 42.31c.391 15.787 6.594 31.459 18.642 43.507 14.187 14.189 33.393 20.282 51.901 18.308l14.77-14.77 14.856-14.855-9.762-16.05-9.26-13" fill="#179697"/><g fill="#0f2929"><path d="m58.12 64.749c0 8.252-6.69 14.943-14.944 14.943-8.256 0-14.946-6.691-14.946-14.943 0-8.255 6.69-14.947 14.946-14.947 8.254 0 14.944 6.692 14.944 14.947"/><path d="m28.23 64.749l-2.469 28.26c0 0-.739 5.92 6.663 6.661 0 0 4.442.989 7.404-4.687l9.868-20.232"/><path d="m69.44 64.749c0 8.252 6.69 14.943 14.943 14.943 8.255 0 14.946-6.691 14.946-14.943 0-8.255-6.691-14.947-14.946-14.947-8.253 0-14.943 6.692-14.943 14.947"/><path d="m99.33 64.749l2.468 28.26c0 0 .74 5.92-6.663 6.661 0 0-4.442.989-7.403-4.687l-9.869-20.232"/><path mask="url(#1)" d="m43.17 79.69h41.35v-29.889h-41.35z"/></g><g fill="#1a4241"><path d="m55.56 64.47c0 6.913-5.604 12.518-12.517 12.518-6.912 0-12.515-5.605-12.515-12.518 0-6.912 5.603-12.516 12.515-12.516 6.913 0 12.517 5.604 12.517 12.516" mask="url(#1)"/><path d="m97.04 64.47c0 6.913-5.604 12.518-12.518 12.518-6.913 0-12.516-5.605-12.516-12.518 0-6.912 5.603-12.516 12.516-12.516 6.914 0 12.518 5.604 12.518 12.516" mask="url(#1)"/></g><g fill="#ced9d8"><path mask="url(#1)" d="m40.873 70.54h4.337v-13.621h-4.337z"/><path mask="url(#1)" d="m36.23 65.895h13.621v-4.335h-13.621z"/></g><path d="m68.36 74.45c0 .9-.732 1.633-1.636 1.633h-6.969c-.903 0-1.635-.733-1.635-1.633 0-.906.732-1.638 1.635-1.638h6.969c.904 0 1.636.732 1.636 1.638" fill="#1a4241" mask="url(#1)"/><path d="m87.11 58.55c0 1.43-1.16 2.59-2.591 2.59-1.43 0-2.592-1.16-2.592-2.59 0-1.431 1.162-2.59 2.592-2.59 1.431 0 2.591 1.159 2.591 2.59" fill="#ffbc2f" mask="url(#1)"/><path d="m87.11 70.4c0 1.429-1.16 2.59-2.591 2.59-1.43 0-2.592-1.161-2.592-2.59 0-1.431 1.162-2.591 2.592-2.591 1.431 0 2.591 1.16 2.591 2.591" fill="#009c46" mask="url(#1)"/><path d="m90.45 67.06c-1.432 0-2.592-1.16-2.592-2.59 0-1.431 1.16-2.592 2.592-2.592 1.429 0 2.59 1.161 2.59 2.592 0 1.43-1.161 2.59-2.59 2.59" fill="#ff4c4c" mask="url(#1)"/><path d="m78.6 67.06c-1.431 0-2.591-1.16-2.591-2.59 0-1.431 1.16-2.592 2.591-2.592 1.431 0 2.59 1.161 2.59 2.592 0 1.43-1.159 2.59-2.59 2.59" fill="#00bdc0" mask="url(#1)"/><path fill="#ffad1d" mask="url(#1)" d="m63.779 35.438l-21.429-12.378 8.211 20.32h26.437l8.212-20.32z"/><path fill="#f77800" mask="url(#1)" d="m73.836 29.632l-10.06 5.806-10.05-5.806-3.163 13.738h26.436z"/><path fill="#ffc100" mask="url(#1)" d="m63.78 10.689l13.219 32.681h-26.438z"/></g></svg>