<svg xmlns="http://www.w3.org/2000/svg" viewBox="0 0 100 100" enable-background="new 0 0 100 100"><path d="m85.35 14.65c19.53 19.53 19.53 51.18 0 70.71-19.53 19.53-51.18 19.53-70.71 0-19.53-19.53-19.53-51.18 0-70.71 19.53-19.53 51.19-19.53 70.71 0" fill="#46babe"/><path d="m56.45 42.95l-34.38-11.53-21.94 21.94c.78 11.65 5.61 23.09 14.52 31.99 11.31 11.31 26.69 16.05 41.42 14.26l27.69-27.69-8.09-17.32-19.22-11.65" fill="#32a2a7"/><path d="m85.04 67.94l-2.27-26.05c0-7.57-6.1-13.7-13.65-13.77v-.01h-38.1c-7.61 0-13.77 6.17-13.77 13.77l-2.27 26.05c0 0-.68 5.46 6.14 6.14 0 0 4.09.91 6.82-4.32l6.88-14.1h30.4l6.88 14.1c2.73 5.23 6.82 4.32 6.82 4.32 6.8-.68 6.12-6.13 6.12-6.13" fill="#f8b163"/><g fill="#ffdd93"><path d="m42.42 41.64c0 6.37-5.16 11.54-11.54 11.54-6.37 0-11.53-5.16-11.53-11.54 0-6.37 5.16-11.53 11.53-11.53 6.38-.01 11.54 5.16 11.54 11.53"/><path d="m80.65 41.64c0 6.37-5.16 11.54-11.54 11.54s-11.53-5.16-11.53-11.54c0-6.37 5.16-11.53 11.53-11.53s11.54 5.16 11.54 11.53"/></g><g fill="#d6873a"><path d="m28.89 34.67h3.99v12.55h-3.99z"/><path d="m24.61 38.95h12.55v3.99h-12.55z"/><path d="m54.22 50.83c0 .83-.67 1.51-1.51 1.51h-6.42c-.83 0-1.51-.68-1.51-1.51 0-.83.67-1.51 1.51-1.51h6.42c.83 0 1.51.67 1.51 1.51"/><path d="m71.5 36.18c0 1.32-1.07 2.39-2.39 2.39-1.32 0-2.39-1.07-2.39-2.39 0-1.32 1.07-2.39 2.39-2.39 1.32 0 2.39 1.07 2.39 2.39"/><path d="m71.5 47.1c0 1.32-1.07 2.39-2.39 2.39-1.32 0-2.39-1.07-2.39-2.39 0-1.32 1.07-2.39 2.39-2.39 1.32 0 2.39 1.07 2.39 2.39"/><path d="m74.57 44.02c-1.32 0-2.39-1.07-2.39-2.39s1.07-2.39 2.39-2.39c1.32 0 2.39 1.07 2.39 2.39s-1.07 2.39-2.39 2.39"/><path d="m63.65 44.02c-1.32 0-2.39-1.07-2.39-2.39s1.07-2.39 2.39-2.39c1.32 0 2.39 1.07 2.39 2.39s-1.07 2.39-2.39 2.39"/></g></svg>