<?xml version="1.0" encoding="iso-8859-1"?>
<!-- Generator: Adobe Illustrator 19.0.0, SVG Export Plug-In . SVG Version: 6.00 Build 0)  -->
<svg version="1.1" id="Capa_1" xmlns="http://www.w3.org/2000/svg" xmlns:xlink="http://www.w3.org/1999/xlink" x="0px" y="0px"
	 viewBox="0 0 512 512" style="enable-background:new 0 0 512 512;" xml:space="preserve">
<circle style="fill:#7AE5FE;" cx="256" cy="256" r="256"/>
<path style="fill:#00BED2;" d="M274.79,511.311C407.4,501.69,512,391.065,512,256c0-7.526-0.344-14.971-0.98-22.333L365.762,88.409
	L175.595,207.095l117.97,142.948l-108.412,71.631L274.79,511.311z"/>
<polygon style="fill:#143E7C;" points="413.55,192.698 98.45,192.698 146.238,88.409 365.762,88.409 "/>
<polygon style="fill:#11244F;" points="365.762,88.409 255.952,88.409 255.952,192.698 413.55,192.698 "/>
<polygon style="fill:#303F9E;" points="257.001,381.432 98.45,192.698 146.238,88.409 296.952,273.898 "/>
<polygon style="fill:#1A237E;" points="254.999,381.432 413.55,192.698 365.762,88.409 215.047,273.898 "/>
<polygon style="fill:#143E7C;" points="365.762,88.409 255.952,223.555 255.952,380.297 413.55,192.698 "/>
<circle style="fill:#FFFFFF;" cx="256" cy="353.69" r="98.19"/>
<g>
	<path style="fill:#E0E0E0;" d="M256,255.506c-0.016,0-0.032,0.001-0.048,0.001v196.377c0.016,0,0.032,0.001,0.048,0.001
		c54.228,0,98.189-43.961,98.189-98.189C354.189,299.467,310.228,255.506,256,255.506z"/>
	<circle style="fill:#E0E0E0;" cx="256" cy="353.69" r="70.847"/>
</g>
<g>
	<path style="fill:#C0C0C0;" d="M256,282.848c-0.016,0-0.032,0.001-0.048,0.001v141.692c0.016,0,0.032,0.001,0.048,0.001
		c39.128,0,70.847-31.719,70.847-70.847S295.128,282.848,256,282.848z"/>
	<rect x="226.25" y="304.94" style="fill:#C0C0C0;" width="23.5" height="97.5"/>
</g>
<rect x="262.25" y="304.94" style="fill:#758F9B;" width="23.5" height="97.5"/>
<g>
</g>
<g>
</g>
<g>
</g>
<g>
</g>
<g>
</g>
<g>
</g>
<g>
</g>
<g>
</g>
<g>
</g>
<g>
</g>
<g>
</g>
<g>
</g>
<g>
</g>
<g>
</g>
<g>
</g>
</svg>
