<svg xmlns="http://www.w3.org/2000/svg" viewBox="0 0 100 100" enable-background="new 0 0 100 100"><circle fill="#ed2121" cx="50" cy="50" r="50"/><path opacity=".7" fill="#ba1a1a" d="m1.948 36.19c-1.257 4.388-1.948 9.02-1.948 13.81 0 27.614 22.385 49.999 50 49.999 2.287 0 4.535-.168 6.741-.465l24.22-24.22-61.901-56.23-17.11 17.11"/><path fill="#ceccc0" d="m58.918 68.47l9.532-9.531-34.607-34.609-14.783-5.25 5.25 14.782"/><path transform="matrix(.7071.7071-.7071.7071 71.48-29.594)" fill="#2b3347" d="m62.03 67.47h18.858v8.01h-18.858z"/><path fill="#ceccc0" d="m63.68 63.706l4.77-4.767-34.607-34.609-14.783-5.25z"/><path transform="matrix(.7071-.7071.7071.7071-26.665 64.35)" fill="#f4b056" d="m52.52 62.46h23.644v3.813h-23.644z"/><path fill="#a08d8d" d="M81.06 18.981 75.81 33.765 41.2 68.37 31.665 58.841 66.27 24.23z"/><path fill="#fff" d="M81.06 18.981 75.81 33.765 41.2 68.37 31.665 58.841 66.27 24.23z"/><path transform="matrix(-.7071.7071-.7071-.7071 99.4 101.59)" fill="#353d4f" d="m19.228 67.38h18.859v8.01h-18.859z"/><path fill="#fff" d="m36.432 63.61l-4.767-4.769 34.605-34.611 14.79-5.248z"/><path transform="matrix(-.7071-.7071.7071-.7071 15.629 135)" fill="#ffd67b" d="m23.952 62.36h23.643v3.813h-23.643z"/></svg>