<svg xmlns="http://www.w3.org/2000/svg" viewBox="0 0 100 100" enable-background="new 0 0 100 100"><circle cx="50" cy="50" r="50" fill="#4c2451"/><path d="m58.1 37.6l-6.4-17.6v-11.2l-1.7-5.9-9.2 9.2-6.5-5.5-33.2 33.2c-3.3 16 1.2 33.2 13.6 45.6 10.6 10.6 24.9 15.4 38.8 14.5l5.3-5.3-5.1-1.9-1-3.7 4.8-23.6 22.8-22.8-9.7-.8 10.5-10.5-23 6.3" opacity=".5" fill="#361c3d"/><path fill="#e0ab8d" d="m52.8 53v-2.4h-3.2-.1-3.2v2.4l-2.4.6 5.6 6.8v.2l.1-.1v.1-.2l5.7-6.8z"/><path fill="#3b4db2" d="m41.5 94.4l8.1-.6v-2l-3.2-.9-3.1.2-3.2 2.7z"/><g fill="#fff"><path d="m49.6 91.8v-1.4l-2.1-2.2-4.2 1.9v1l1.9.7z"/><path d="m49.6 94.6v-.8h-9.5l.3.8z"/></g><path fill="#2a3e91" d="m57.7 94.4l-8.1-.6v-2l3.2-.9 3.2.2 3.1 2.7z"/><g fill="#e0ddcd"><path d="m49.6 91.8v-1.4l2.1-2.2 4.3 1.9v1l-2 .7z"/><path d="m49.6 94.6v-.8h9.5l-.3.8z"/></g><path d="m41.2 58.2l-3.6-1.6c0 0-3.1 3.7-2.9 9.9l2.1 2.1-1.4 2.2c0 0-.2 5.2 3.8 5.6l2.9-8.8-.9-9.4" fill="#edc7ae"/><path d="m42.1 66.5h-7.3c.1 1.3.3 2.8.7 4.3l4 .9 2.1-2.2.6-1.9-.1-1.1" fill="#3b4db2"/><path d="m58 58.2l3.6-1.6c0 0 3.1 3.7 2.9 9.9l-2.1 2.1 1.4 2.2c0 0 .2 5.2-3.8 5.6l-3-8.9 1-9.3" fill="#edc7ae"/><path d="m57.1 66.5h7.3c-.1 1.3-.3 2.8-.7 4.3l-4 .9-2.1-2.2-.6-2 .1-1" fill="#3b4db2"/><path fill="#ff5f2e" d="m57.9 68.1l2.5-1.6-.8-5.7 3.7-5.1-7.8-2.9-5.9 5.8-5.8-5.8-7.8 2.9 3.6 5.1-.8 5.7 2.5 1.6-1.8 3.5-.8 12.8 3.9 4.9v1.1h7 7.1v-1.1l3.8-4.9-.7-12.8z"/><circle cx="54.6" cy="61.7" r="2.8" fill="#f4e725"/><path fill="#d34220" d="m51.4 88.5v-19.5h-1.8-1.9v19.5l-2.9.9 4.8 1 4.7-1z"/><path d="m58.9 67.9h-18.7v1.8h6.3c-.8.8-2.3 2.9-2.3 6.2v3.9h3.9l.6-10.1h1l2 9.6 4.4-1.7-3.9-7.9h6.7v-1.8" fill="#2e3035"/><path d="m68.7 38.9l12.4-7.6c-8.3-2.8-16.9.7-16.9.7-1.6-8.5-8.8-9.9-8.8-9.9 1-12.5-5.4-19.2-5.4-19.2v15.5c-2.2-10.6-15.7-11.9-15.7-11.9l3.8 6.4 1.6 8.8c-9.1-3.4-18.6.4-18.6.4l12 8.8c-4.7-1.1-9 1.3-9 1.3l10.2 5.9c-3.6.6-6.1 3.9-6.1 3.9l8.8 1.9 20 5.5 12.5-1.7-4.2-1.8 14.9-3.4c-5.4-3.9-11.5-3.6-11.5-3.6" fill="#535a68"/><g fill="#e0ab8d"><path d="m38.8 41.1c0 0-3.6-3.4-3.6.7 0 4.1 3.3 7.2 6.1 5.9l-2.5-6.6"/><path d="m60.6 41.1c0 0 3.6-3.4 3.6.7 0 4.1-3.3 7.2-6.1 5.9l2.5-6.6"/></g><path d="m58.5 31.3l-8.8-.7-8.8.7-2.7 9.6 3.5 9c0 0 2.6 2.3 8 3 5.4-.8 8-3 8-3l3.5-9-2.7-9.6" fill="#edc7ae"/><path fill="#535a68" d="m38.2 40.8l1.8 1.2-.6-2.6 1.6.7-1.3-4.6 3.9-3.7-.7 6.9 5.4-6v4.5l5.9-6.2 1.2 2.1-.8 5.3 5.3-3.4.4 2-1.8 3.5 1.6-.7-.6 1.6 1.7-.6 1-3.2-1-5-1.6-3-1.5-1.6h-13.9l-3.6.9-3.6 3.2-1.3 2.9"/></svg>