<svg xmlns="http://www.w3.org/2000/svg" viewBox="0 0 100 100" enable-background="new 0 0 100 100"><circle fill="#293c77" cx="50" cy="50" r="50"/><path opacity=".5" fill="#1f294e" d="m71.784 46.08l-12.808 12.809-18.976-18.975-12.05-11.808-27.608 27.608c1.237 10.832 5.995 21.337 14.305 29.646 8.201 8.2 18.54 12.942 29.22 14.255l27.919-27.918-5.607-5.607 12.391-12.395-6.784-7.615"/><path fill="#fab836" d="m50.01 49.751l21.86-21.857c-5.596-5.595-13.324-9.06-21.86-9.06-17.07 0-30.915 13.84-30.915 30.913s13.842 30.913 30.915 30.913c8.494 0 16.187-3.428 21.774-8.973l-21.774-21.94"/><circle fill="#131a26" cx="50.01" cy="31.26" r="5.105"/><circle fill="#e63737" cx="75.01" cy="50.03" r="5.106"/></svg>