<svg xmlns="http://www.w3.org/2000/svg" viewBox="0 0 100 100" enable-background="new 0 0 100 100"><circle fill="#4f1c4e" cx="50" cy="50" r="49.999"/><path fill="#411742" d="m58.643 41.601l7.711-7.709-.525.357-6.615-7.991-12.596 12.594-9.143.926-2.967.929 6.978-6.978-7.288-7.472-33.28 33.28c1.83 9.459 6.406 18.49 13.731 25.814 8.199 8.201 18.539 12.942 29.22 14.256l24.537-24.537c0 .432-2.08-13.781-2.08-13.781l6.06-6.06-13.743-13.627"/><circle fill="#ffac88" cx="37.607" cy="30.22" r="5.234"/><path fill="#283b77" d="m47.35 39.447c0-1.143-.927-2.07-2.07-2.07h-15.617c-1.144 0-2.071.927-2.071 2.07v15.781h3.983v19.846h11.792v-19.846h3.982v-15.781"/><circle fill="#ffac88" cx="62.62" cy="30.19" r="5.234"/><path fill="#283b77" d="m72.39 39.42c0-1.144-.928-2.07-2.07-2.07h-15.618c-1.145 0-2.07.927-2.07 2.07v15.782h3.982v19.842h11.791v-19.843h3.984v-15.781z"/><g fill="#40914d"><path d="m60.1 37.38h4.816v4.612h-4.816z"/><path d="m52.629 39.42v15.782h3.951v-17.853h-1.881c-1.144 0-2.07.927-2.07 2.071"/><path d="m68.41 55.2h3.953v-15.967c-.096-1.056-.973-1.885-2.051-1.885h-1.902v17.852"/></g><path fill="#894128" d="m56.61 70.39h11.791v4.681h-11.791z"/><path fill="#40914d" d="m62.62 24.958c-2.891 0-5.234 2.345-5.234 5.234 0 .011.002.021.002.031h10.465c0-.011 0-.02 0-.031 0-2.89-2.342-5.234-5.233-5.234"/><g fill="#ff2c2c"><path d="m35.08 37.38h4.818v4.612h-4.818z"/><path d="m27.613 39.42v15.782h3.954v-17.853h-1.883c-1.143 0-2.071.927-2.071 2.071"/><path d="m43.4 55.2h3.954v-15.967c-.096-1.056-.973-1.885-2.053-1.885h-1.901v17.852"/></g><path fill="#894128" d="m31.597 70.39h11.792v4.681h-11.792z"/><path fill="#ff2c2c" d="m37.607 24.958c-2.891 0-5.234 2.345-5.234 5.234 0 .011.001.021.001.031h10.466c0-.011 0-.02 0-.031 0-2.89-2.342-5.234-5.233-5.234"/></svg>