<?xml version="1.0" encoding="iso-8859-1"?>
<!-- Generator: Adobe Illustrator 19.0.0, SVG Export Plug-In . SVG Version: 6.00 Build 0)  -->
<svg version="1.1" id="Layer_1" xmlns="http://www.w3.org/2000/svg" xmlns:xlink="http://www.w3.org/1999/xlink" x="0px" y="0px"
	 viewBox="0 0 512 512" style="enable-background:new 0 0 512 512;" xml:space="preserve">
<circle style="fill:#FFD15D;" cx="256" cy="256" r="256"/>
<path style="fill:#F9B54C;" d="M511.691,268.553L405.344,162.206L256,311.529l39.795,39.795L256,409.529l87.205,87.206
	c34.237-12.376,66.369-32.27,93.813-59.714C483.812,390.225,508.7,329.825,511.691,268.553z"/>
<g>
	<polygon style="fill:#324A5E;" points="256,409.529 106.656,260.206 134.69,232.167 256,353.459 377.31,232.169 405.344,260.206 	
		"/>
	<polygon style="fill:#324A5E;" points="256,311.529 106.656,162.206 134.69,134.166 256,255.46 377.31,134.168 405.344,162.206 	
		"/>
</g>
<g>
	<polygon style="fill:#2B3B4E;" points="405.344,260.206 377.31,232.169 256,353.459 255.426,352.885 255.426,408.955 256,409.529 	
		"/>
	<polygon style="fill:#2B3B4E;" points="405.344,162.206 377.31,134.168 256,255.46 255.426,254.886 255.426,310.955 256,311.529 	
		"/>
</g>
<g>
</g>
<g>
</g>
<g>
</g>
<g>
</g>
<g>
</g>
<g>
</g>
<g>
</g>
<g>
</g>
<g>
</g>
<g>
</g>
<g>
</g>
<g>
</g>
<g>
</g>
<g>
</g>
<g>
</g>
</svg>
