<?xml version="1.0" encoding="iso-8859-1"?>
<!-- Generator: Adobe Illustrator 19.0.0, SVG Export Plug-In . SVG Version: 6.00 Build 0)  -->
<svg version="1.1" id="Capa_1" xmlns="http://www.w3.org/2000/svg" xmlns:xlink="http://www.w3.org/1999/xlink" x="0px" y="0px"
	 viewBox="0 0 512.019 512.019" style="enable-background:new 0 0 512.019 512.019;" xml:space="preserve">
<g>
	<path style="fill:#35495E;" d="M459.044,44.138v265.357l-17.655,176.022H17.665c-9.739-0.029-17.627-7.916-17.655-17.655V44.138
		H459.044z"/>
	<g>
		<path style="fill:#4482C3;" d="M500.71,401.479l7.062,74.593c1.524,17.045-10.248,32.423-27.101,35.399
			c-16.422,2.959-32.511-6.649-37.694-22.51l-19.509-63.823H293.262l-19.509,63.823c-5.198,16.073-21.606,25.708-38.174,22.417
			s-28.048-18.466-26.708-35.305l6.974-72.563c-13.978-17.373-16.749-41.225-7.125-61.34c9.624-20.115,29.935-32.923,52.234-32.939
			c16.472-0.051,32.168,6.993,43.079,19.332h106.99c10.911-12.34,26.607-19.383,43.079-19.332
			c21.846-0.008,41.836,12.284,51.688,31.783S513.677,383.896,500.71,401.479z"/>
		<path style="fill:#4482C3;" d="M299.971,425.137h38.223c0.051,6.862-3.58,13.224-9.515,16.67c-5.934,3.446-13.26,3.446-19.194,0
			C303.551,438.361,299.92,431.998,299.971,425.137z"/>
		<path style="fill:#4482C3;" d="M415.436,425.137c0.051,6.862-3.58,13.224-9.515,16.67s-13.26,3.446-19.194,0
			c-5.934-3.446-9.566-9.808-9.515-16.67H415.436z"/>
	</g>
	<g>
		<path style="fill:#285680;" d="M318.862,367.139c0,31.982-25.927,57.909-57.909,57.909s-57.909-25.927-57.909-57.909
			s25.927-57.909,57.909-57.909C292.889,309.341,318.752,335.203,318.862,367.139z"/>
		<path style="fill:#285680;" d="M512.009,367.139c0,31.982-25.927,57.909-57.909,57.909c-31.982,0-57.909-25.927-57.909-57.909
			c0.11-31.936,25.973-57.799,57.909-57.909C486.075,309.249,511.991,335.165,512.009,367.139z"/>
	</g>
	<path style="fill:#14A085;" d="M454.1,356.72c-1.154-0.012-2.293-0.252-3.353-0.707c-1.114-0.401-2.114-1.066-2.914-1.94
		c-0.796-0.83-1.452-1.784-1.944-2.823c-0.424-1.068-0.634-2.209-0.616-3.358c-0.04-2.351,0.885-4.617,2.56-6.268
		c1.632-1.684,3.877-2.634,6.222-2.634c2.345,0,4.59,0.95,6.222,2.634c1.694,1.628,2.651,3.875,2.651,6.224
		s-0.957,4.597-2.651,6.224c-0.783,0.851-1.748,1.515-2.823,1.94C456.393,356.467,455.253,356.708,454.1,356.72z"/>
	<path style="fill:#CC66A1;" d="M434.768,375.965c-2.348,0.024-4.607-0.899-6.268-2.56c-1.627-1.683-2.544-3.927-2.56-6.268
		c0.017-2.315,0.935-4.532,2.56-6.181c3.523-3.308,9.011-3.308,12.534,0c1.623,1.65,2.541,3.867,2.56,6.181
		c-0.018,2.34-0.935,4.584-2.56,6.268C439.365,375.052,437.113,375.972,434.768,375.965z"/>
	<path style="fill:#F29C1F;" d="M473.432,375.965c-2.352,0.041-4.617-0.884-6.268-2.56c-0.85-0.784-1.515-1.749-1.944-2.823
		c-0.424-1.098-0.633-2.267-0.616-3.444c-0.023-2.323,0.902-4.555,2.56-6.181c3.488-3.308,8.956-3.308,12.444,0
		c1.685,1.616,2.642,3.846,2.651,6.181c-0.014,1.183-0.254,2.352-0.707,3.444c-0.459,1.058-1.119,2.017-1.944,2.823
		C477.983,375.064,475.753,375.988,473.432,375.965z"/>
	<path style="fill:#2FA8CC;" d="M454.1,395.297c-1.158,0.031-2.307-0.212-3.353-0.707c-1.092-0.404-2.085-1.036-2.914-1.854
		c-0.818-0.846-1.476-1.834-1.944-2.914c-0.424-1.066-0.634-2.206-0.616-3.353c-0.029-2.953,1.435-5.721,3.892-7.359
		c2.457-1.638,5.575-1.925,8.289-0.762c1.053,0.427,2.013,1.057,2.823,1.854c1.695,1.645,2.651,3.906,2.651,6.267
		c0,2.362-0.956,4.622-2.651,6.267c-0.811,0.797-1.77,1.427-2.823,1.854C456.406,395.086,455.258,395.328,454.1,395.297z"/>
	<path style="fill:#BDC3C7;" d="M280.285,358.345h-10.483v-10.483c0-4.875-3.952-8.828-8.828-8.828s-8.828,3.952-8.828,8.828v10.483
		h-10.483c-4.875,0-8.828,3.952-8.828,8.828s3.952,8.828,8.828,8.828h10.483v10.483c0,4.875,3.952,8.828,8.828,8.828
		s8.828-3.952,8.828-8.828V376h10.483c4.875,0,8.828-3.952,8.828-8.828S285.161,358.345,280.285,358.345z"/>
	<path style="fill:#A5A5A4;" d="M459.044,17.655v52.966H0.009V17.655C0.038,7.916,7.926,0.028,17.665,0h423.724
		C451.128,0.028,459.016,7.916,459.044,17.655z"/>
	<g>
		<path style="fill:#285680;" d="M423.345,429.567c-0.166,14.461-12,26.062-26.462,25.94c-14.461-0.122-26.099-11.921-26.021-26.382
			c0.078-14.462,11.841-26.135,26.303-26.101c4.371,0.02,8.665,1.146,12.484,3.273C418.133,410.959,423.387,419.887,423.345,429.567
			z"/>
		<path style="fill:#285680;" d="M343.704,429.567c-0.166,14.461-12,26.062-26.462,25.94c-14.461-0.122-26.099-11.921-26.021-26.382
			c0.078-14.462,11.841-26.135,26.303-26.101c4.371,0.02,8.665,1.146,12.483,3.273C338.491,410.959,343.746,419.887,343.704,429.567
			z"/>
	</g>
	<path style="fill:#CC4B4C;" d="M35.32,44.138c-2.337-0.035-4.575-0.949-6.268-2.56c-3.414-3.481-3.414-9.054,0-12.535
		c3.54-3.268,8.996-3.268,12.535,0c3.414,3.481,3.414,9.054,0,12.535C39.894,43.189,37.657,44.103,35.32,44.138z"/>
	<path style="fill:#F0C419;" d="M70.63,44.138c-2.348,0.023-4.607-0.9-6.267-2.56c-1.66-1.66-2.583-3.919-2.56-6.267
		c0.014-0.593,0.073-1.184,0.177-1.767c0.095-0.554,0.272-1.09,0.526-1.59c0.195-0.562,0.463-1.095,0.797-1.586
		c0.353-0.444,0.707-0.884,1.06-1.323c3.539-3.268,8.995-3.268,12.535,0c0.353,0.44,0.707,0.879,1.056,1.323
		c0.334,0.491,0.603,1.025,0.797,1.586c0.253,0.502,0.432,1.038,0.53,1.591c0.102,0.584,0.161,1.175,0.177,1.767
		c0.023,2.348-0.9,4.607-2.56,6.267C75.237,43.238,72.978,44.161,70.63,44.138z"/>
	<path style="fill:#14A085;" d="M105.941,44.138c-1.155-0.014-2.296-0.254-3.358-0.707c-1.068-0.449-2.051-1.076-2.91-1.853
		c-3.414-3.481-3.414-9.054,0-12.534c0.857-0.78,1.841-1.409,2.909-1.858c2.151-0.879,4.561-0.879,6.711,0
		c1.07,0.449,2.056,1.077,2.915,1.857c3.414,3.481,3.414,9.054,0,12.534c-0.86,0.778-1.845,1.405-2.914,1.854
		C108.233,43.884,107.094,44.124,105.941,44.138z"/>
	<g>
		<path style="fill:#F29C1F;" d="M132.423,123.586H44.147c-4.875,0-8.828-3.952-8.828-8.828s3.952-8.828,8.828-8.828h88.276
			c4.875,0,8.828,3.952,8.828,8.828S137.299,123.586,132.423,123.586z"/>
		<path style="fill:#F29C1F;" d="M132.423,158.897H70.63c-4.875,0-8.828-3.952-8.828-8.828s3.952-8.828,8.828-8.828h61.793
			c4.875,0,8.828,3.952,8.828,8.828S137.299,158.897,132.423,158.897z"/>
	</g>
	<g>
		<path style="fill:#14A085;" d="M406.078,194.207H44.147c-4.875,0-8.828-3.952-8.828-8.828c0-4.875,3.952-8.828,8.828-8.828
			h361.931c4.875,0,8.828,3.952,8.828,8.828C414.906,190.255,410.954,194.207,406.078,194.207z"/>
		<path style="fill:#14A085;" d="M335.458,229.517H44.147c-4.875,0-8.828-3.952-8.828-8.828s3.952-8.828,8.828-8.828h291.31
			c4.875,0,8.828,3.952,8.828,8.828S340.333,229.517,335.458,229.517z"/>
	</g>
	<g>
		<path style="fill:#F29C1F;" d="M79.458,264.828h-35.31c-4.875,0-8.828-3.952-8.828-8.828s3.952-8.828,8.828-8.828h35.31
			c4.875,0,8.828,3.952,8.828,8.828S84.333,264.828,79.458,264.828z"/>
		<path style="fill:#F29C1F;" d="M185.389,300.138H61.803c-4.875,0-8.828-3.952-8.828-8.828s3.952-8.828,8.828-8.828h123.586
			c4.875,0,8.828,3.952,8.828,8.828S190.264,300.138,185.389,300.138z"/>
		<path style="fill:#F29C1F;" d="M167.734,370.759H61.803c-4.875,0-8.828-3.952-8.828-8.828s3.952-8.828,8.828-8.828h105.931
			c4.875,0,8.828,3.952,8.828,8.828S172.609,370.759,167.734,370.759z"/>
	</g>
	<path style="fill:#14A085;" d="M176.561,406.069H79.458c-4.875,0-8.828-3.952-8.828-8.828c0-4.875,3.952-8.828,8.828-8.828h97.103
		c4.875,0,8.828,3.952,8.828,8.828C185.389,402.117,181.437,406.069,176.561,406.069z"/>
	<g>
		<path style="fill:#F29C1F;" d="M123.596,335.448H44.147c-4.875,0-8.828-3.952-8.828-8.828s3.952-8.828,8.828-8.828h79.448
			c4.875,0,8.828,3.952,8.828,8.828S128.471,335.448,123.596,335.448z"/>
		<path style="fill:#F29C1F;" d="M176.561,450.207H44.147c-4.875,0-8.828-3.952-8.828-8.828s3.952-8.828,8.828-8.828h132.414
			c4.875,0,8.828,3.952,8.828,8.828S181.437,450.207,176.561,450.207z"/>
	</g>
	<g>
		<path style="fill:#14A085;" d="M176.561,335.448h-17.655c-4.875,0-8.828-3.952-8.828-8.828s3.952-8.828,8.828-8.828h17.655
			c4.875,0,8.828,3.952,8.828,8.828S181.437,335.448,176.561,335.448z"/>
		<path style="fill:#14A085;" d="M150.078,264.828h-35.31c-4.875,0-8.828-3.952-8.828-8.828s3.952-8.828,8.828-8.828h35.31
			c4.875,0,8.828,3.952,8.828,8.828S154.954,264.828,150.078,264.828z"/>
	</g>
</g>
<g>
</g>
<g>
</g>
<g>
</g>
<g>
</g>
<g>
</g>
<g>
</g>
<g>
</g>
<g>
</g>
<g>
</g>
<g>
</g>
<g>
</g>
<g>
</g>
<g>
</g>
<g>
</g>
<g>
</g>
</svg>
