<?xml version="1.0" encoding="iso-8859-1"?>
<!-- Generator: Adobe Illustrator 19.0.0, SVG Export Plug-In . SVG Version: 6.00 Build 0)  -->
<svg version="1.1" id="Capa_1" xmlns="http://www.w3.org/2000/svg" xmlns:xlink="http://www.w3.org/1999/xlink" x="0px" y="0px"
	 viewBox="0 0 512 512" style="enable-background:new 0 0 512 512;" xml:space="preserve">
<circle style="fill:#FFDC00;" cx="256" cy="256" r="256"/>
<path style="fill:#FEC007;" d="M275.49,511.267C407.769,501.308,512,390.827,512,256c0-7.526-0.344-14.971-0.981-22.333
	L365.762,88.409L157.811,200.548l131.192,165.023l-102.237,57.757L275.49,511.267z"/>
<polygon style="fill:#C40619;" points="413.55,192.698 98.45,192.698 146.238,88.409 365.762,88.409 "/>
<polygon style="fill:#A0081E;" points="365.762,88.409 255.952,88.409 255.952,192.698 413.55,192.698 "/>
<polygon style="fill:#DD4E4E;" points="257.001,381.432 98.45,192.698 146.238,88.409 296.952,273.898 "/>
<polygon style="fill:#DA302B;" points="254.999,381.432 413.55,192.698 365.762,88.409 215.047,273.898 "/>
<polygon style="fill:#C40619;" points="365.762,88.409 255.995,223.513 255.952,380.297 413.55,192.698 "/>
<circle style="fill:#FF8700;" cx="256" cy="353.69" r="98.19"/>
<path style="fill:#F56C04;" d="M256,451.885c54.228,0,98.189-43.961,98.189-98.189c0-54.229-43.961-98.189-98.189-98.189V451.885z"
	/>
<polygon style="fill:#FFDE1F;" points="256,268.264 281.376,319.68 338.117,327.925 297.059,367.948 306.751,424.46 256,397.778 
	205.249,424.46 214.941,367.948 173.883,327.925 230.624,319.68 "/>
<polygon style="fill:#F9C41E;" points="256,397.778 306.751,424.46 297.059,367.948 338.117,327.925 281.375,319.68 256,268.264 "/>
<g>
</g>
<g>
</g>
<g>
</g>
<g>
</g>
<g>
</g>
<g>
</g>
<g>
</g>
<g>
</g>
<g>
</g>
<g>
</g>
<g>
</g>
<g>
</g>
<g>
</g>
<g>
</g>
<g>
</g>
</svg>
