<?xml version="1.0" encoding="iso-8859-1"?>
<!-- Generator: Adobe Illustrator 19.0.0, SVG Export Plug-In . SVG Version: 6.00 Build 0)  -->
<svg version="1.1" id="Capa_1" xmlns="http://www.w3.org/2000/svg" xmlns:xlink="http://www.w3.org/1999/xlink" x="0px" y="0px"
	 viewBox="0 0 512 512" style="enable-background:new 0 0 512 512;" xml:space="preserve">
<circle style="fill:#FFDC00;" cx="256" cy="256" r="256"/>
<path style="fill:#FEC007;" d="M274.79,511.311C407.4,501.69,512,391.065,512,256c0-7.526-0.344-14.971-0.98-22.333L365.762,88.409
	L175.595,207.095l117.97,142.948l-108.412,71.631L274.79,511.311z"/>
<polygon style="fill:#C40619;" points="413.55,192.698 98.45,192.698 146.238,88.409 365.762,88.409 "/>
<polygon style="fill:#9B0016;" points="365.762,88.409 255.952,88.409 255.952,192.698 413.55,192.698 "/>
<polygon style="fill:#DD4E4E;" points="257.001,381.432 98.45,192.698 146.238,88.409 296.952,273.898 "/>
<polygon style="fill:#DA302B;" points="254.999,381.432 413.55,192.698 365.762,88.409 215.047,273.898 "/>
<polygon style="fill:#C40619;" points="365.762,88.409 255.952,223.555 255.952,380.297 413.55,192.698 "/>
<circle style="fill:#FFA02E;" cx="256" cy="353.69" r="98.19"/>
<path style="fill:#F56C04;" d="M256,255.506c-0.016,0-0.032,0.001-0.048,0.001v196.377c0.016,0,0.032,0.001,0.048,0.001
	c54.229,0,98.189-43.961,98.189-98.189S310.229,255.506,256,255.506z"/>
<circle style="fill:#FEF8C3;" cx="256" cy="353.69" r="70.847"/>
<path style="fill:#FEF49C;" d="M256,282.848c-0.016,0-0.032,0.001-0.048,0.001v141.692c0.016,0,0.031,0.001,0.048,0.001
	c39.128,0,70.847-31.719,70.847-70.847S295.128,282.848,256,282.848z"/>
<rect x="244.25" y="304.94" style="fill:#FFA02E;" width="23.5" height="97.5"/>
<rect x="255.95" y="304.94" style="fill:#F56C04;" width="11.798" height="97.5"/>
<g>
</g>
<g>
</g>
<g>
</g>
<g>
</g>
<g>
</g>
<g>
</g>
<g>
</g>
<g>
</g>
<g>
</g>
<g>
</g>
<g>
</g>
<g>
</g>
<g>
</g>
<g>
</g>
<g>
</g>
</svg>
