<svg id="Capa_1" enable-background="new 0 0 512 512" height="512" viewBox="0 0 512 512" width="512" xmlns="http://www.w3.org/2000/svg"><g><g><g><g><g><g><g><g><g><circle cx="256" cy="256" fill="#ffce00" r="256"/></g></g></g></g></g></g></g></g><path d="m512 256c0-9.701-.54-19.276-1.591-28.697l-88.949-88.949-334.026 209.483 54.851 54.851-2.792 9.622 99.107 99.107c5.75.386 11.552.582 17.4.582 141.385.001 256-114.614 256-255.999z" fill="#ffa300"/><g><path d="m112.397 208.739h156.309c19.132 0 34.641 15.509 34.641 34.641v80.453c0 19.132-15.509 34.641-34.641 34.641h-99.462l-29.751 53.837-29.806-53.942c-17.865-1.383-31.93-16.317-31.93-34.536v-80.453c-.001-19.132 15.509-34.641 34.64-34.641z" fill="#b674f2"/></g><g><path d="m268.706 208.739h-79.453v149.735h79.453c19.132 0 34.641-15.509 34.641-34.641v-80.453c0-19.132-15.509-34.641-34.641-34.641z" fill="#8f4cd6"/></g><g><path d="m396.552 127.774h-156.309c-19.132 0-34.641 15.509-34.641 34.641v80.453c0 19.132 15.509 34.641 34.641 34.641h99.462l29.751 53.837 29.806-53.942c17.865-1.383 31.93-16.317 31.93-34.536v-80.453c.001-19.132-15.508-34.641-34.64-34.641z" fill="#ff73a5"/></g><g><path d="m396.552 127.774h-78.155v149.735h21.308l29.751 53.837 29.806-53.942c17.865-1.383 31.931-16.317 31.931-34.536v-80.453c0-19.132-15.509-34.641-34.641-34.641z" fill="#ff468c"/></g><g><g><path d="m260.365 186.259c0-16.611 13.466-30.077 30.077-30.077 12.684 0 23.534 7.841 27.956 18.949 4.421-11.108 15.272-18.949 27.956-18.949 16.611 0 30.077 13.466 30.077 30.077 0 41.143-58.033 68.801-58.033 68.801s-58.033-29.655-58.033-68.801z" fill="#fff"/></g></g><g><g><path d="m346.354 156.181c-12.684 0-23.534 7.841-27.956 18.949v79.929s58.033-27.657 58.033-68.801c0-16.611-13.466-30.077-30.077-30.077z" fill="#e9edf5"/></g></g></g></svg>