<svg xmlns="http://www.w3.org/2000/svg" viewBox="0 0 100 100" enable-background="new 0 0 100 100"><path fill="#4d6323" d="m85.36 14.645c-19.526-19.526-51.19-19.526-70.71 0-19.525 19.527-19.524 51.19 0 70.72 3.158 3.158 6.638 5.799 10.328 7.936h50.06c3.689-2.137 7.169-4.777 10.327-7.936 19.527-19.528 19.527-51.19 0-70.72"/><path opacity=".5" fill="#2f3d1c" d="m45.29 93.3l3.107-4.275 7.325-33.01c0 0 3.516-14.984 3.613-15.355.097-.37 2.148-3.093 2.148-3.093s.953-2.55 1.015-2.844c.06-.293 1.915-3.418 2.01-4.199.097-.782.781-4.297.781-4.786l-2.793-6.98-11.518 11.517 4.058-8.444-2.512-3.073-11.12 11.123 2.985-7.756-1.826-3.367-9.313 9.314 1.082-6.533-3.108-2.781-31.23 31.23c-.004 12.804 4.878 25.606 14.644 35.37 3.158 3.156 6.635 5.799 10.324 7.936h20.323"/><path fill="#e0c5a9" d="m68.54 87.63v-6.293l-6.05-6.05v-31.733l6.05-6.05v-18.745h-6.04v6.259h-5.084v-6.259h-1.174-3.714v6.259h-5.083v-6.259h-3.771-1.106v6.259h-5.083v-6.259h-.006-6.251v18.745l6.196 6.196v31.399l-6.196 6.197v6.336h-6.262v5.668c15.431 8.934 34.608 8.938 50.04.006v-5.673h-6.465"/><g fill="#cba98c"><path d="m31.29 37.564l6.134 6.133v.054h25.07v-.2l5.99-5.987z"/><path d="m68.51 81.3l-6.02-6.02v-.14h-25.1l-6.16 6.15v.01z"/></g><path fill="#e0c5a9" d="m31.23 81.29h37.32v6.342h-37.32z"/><g fill="#2f3d1c"><path d="m52.96 70.72v-7.576c0-1.631-1.32-2.953-2.951-2.953-1.63 0-2.95 1.322-2.95 2.953v7.576h5.901"/><path d="m52.96 56.985v-7.575c0-1.631-1.32-2.951-2.951-2.951-1.63 0-2.95 1.32-2.95 2.951v7.575h5.901"/></g></svg>