<svg xmlns="http://www.w3.org/2000/svg" viewBox="0 0 100 100" enable-background="new 0 0 100 100"><circle fill="#24396d" cx="50" cy="50" r="50"/><path fill="#1b3460" d="m77 29.495l-3.216-1.362-2.225 2.225-1.758.697-3.54 3.54-.076-.121 1.219-1.218-1.166-1.662-1.038.454-.175.594-.378-.596-1.343 3.648h-3.948l-4.569-2.167.831-5.124-9.69-.623-6.568-1.073-5.624 2.476-1.7-1.734-31.26 31.27c1.718 9.756 6.333 19.1 13.871 26.641 6.569 6.568 14.512 10.916 22.902 13.07l22.899-23.01-5.652-.9 27.463-27.462-2.815-.306 2.815-12.167-5.256-5.08"/><g fill="#f5b181"><path d="m19.707 65.6h-1.635c0 0-2.657-.068-2.657 2.588v2.248c0 0-.725.137-.725 1.977v2.998l.741.816h5.57l.954-1.498c0 0 .681-.75-1.84-.75v-4.088l1.507-1.506-1.915-2.785"/><path d="m51.918 67.848l-.85 3.814c0 0-2.02 3.748 0 3.748h2.838 6.541l.621-1.227h-1.167l-4.281-2.248 1.593-4.973-5.295.886"/></g><path fill="#d6cec8" d="m50.569 50.883l9.881 4.906-1.561 11.441-8.32 1.3.501-7.97-8.68-2.39-17.486 12.744-5.197-1.774v-4.63l7.971-6.34 4.973-7.287 2.729-2.179 3.472 3.066z"/><ellipse transform="matrix(.9986-.0521.0521.9986-1.791 2.683)" fill="#d87d4a" cx="50.568" cy="35.692" rx="4.223" ry="2.997"/><path fill="#ededd8" d="m37.488 45.583l-5.448 4.547.611.753 2.112-1.633v4.395l7.971 2.144h3.266l5.07-4.906-1.409-1.403z"/><ellipse transform="matrix(.9994.0353-.0353.9994 1.324-1.971)" fill="#d87d4a" cx="56.42" cy="36.459" rx="5.354" ry="2.93"/><path fill="#3c2316" d="m59.23 39.02l.19-4.91 3.392.705.338 3.049z"/><path fill="#2d0c0c" d="m37.488 45.02v1.98l4.902 3.54-.722 9.47 2.156 2.25v-10.83h1.037v10.83l2.097-2.18v-8.79l2.793-1.91v-1.698z"/><path fill="#d87d4a" d="m63.15 37.864c0 0 3.162.521 3.511-1.146l.243-1.163c0 0 .498-1.049-.836-1.328l.25-1.2c0 0 .561.535 1.09.227l.307-1.467c0 0 .311-.909-1.992-1.39 0 0-2.023-.492-2.385 1.242l-.657 3.147.469 3.078"/><path fill="#ededd8" d="m46.542 30.334c0 0-1.288-1.462-5.443-1.016 0 0-4.224.187-4.224 5.256v10.587l5.45 3.747c0 0 2.823 1.704 5.738 0l4.277-1.839v-6.88l-5.798-9.855"/><path fill="#e59965" d="m45.596 31.536l2.464-3.134 5.846 4.157-1.988 3.132-4.888-.671z"/><path fill="#3c2316" d="m46.86 31.759l2.892-2.157 4.155 2.956.883-.512v1.479c0 0 2.424-1.328 2.424-3.191 0-1.864-3.109-3.5-5.83-4.794 0 0-5.04-.894-5.04 3.436l-.751 2.072 1.263.711"/><g fill="#f5b181"><circle cx="43.825" cy="35.691" r="4.973"/><ellipse transform="matrix(.9669.2552-.2552.9669 11.259-11.448)" cx="49.751" cy="37.667" rx="4.223" ry="2.998"/><ellipse transform="matrix(.9855.1699-.1699.9855 7.646-9)" cx="56.44" cy="40.19" rx="5.354" ry="2.93"/></g><path fill="#3c2316" d="m59.71 38.26l-.821 4.84h3.461l.96-2.91z"/><path fill="#b21d1d" d="m46.685 27.857c0 0-4.769-4.14-10.423-1.15 0 0-2.453 1.491-4.224.742v2.886c0 0 3.747-.162 5.45-1.933s6.391-1.183 8.354.735l.843-1.28"/><path fill="#f5b181" d="m63.31 40.19c0 0 3.203.136 3.203 1.839v1.188c0 0 .273 1.129-1.09 1.129v1.226c0 0 .657-.408 1.112 0v1.499c0 0 .12.954-2.233.954 0 0-2.081.068-2.081-1.703v-3.215l1.089-2.917"/><path fill="#d73a3a" d="m52.76 34.34l-7.49-5.638 1.433-1.995 7.497 5.643z"/><path fill="#4696d7" d="m66.53 38.485l3.622 2.544h-2.998l5.968 4.171c.129.095.26.188.395.275l.546.382-4.612.907c3.428 1.522 7.177.451 7.177.451-.081 1.191-3.194 2.47-3.194 2.47 8.267 0 10.736-5.815 10.736-5.815l-.039.008c1.186-1.41 1.902-3.228 1.902-5.215 0-1.762-.566-3.386-1.52-4.717h.007c0 0-2.47-5.815-10.736-5.815 0 0 3.114 1.278 3.195 2.47 0 0-3.751-1.069-7.178.452l3.37.662-6.02 4.206h2.998l-3.622 2.545"/><path fill="#a3eaf3" d="m70.67 38.538l3.164 2.223h-2.619l5.213 3.644c.112.083.227.165.345.241l.477.333-4.03.792c2.994 1.329 6.27.395 6.27.395-.07 1.041-2.791 2.158-2.791 2.158 7.222 0 9.38-5.081 9.38-5.081l-.033.006c1.034-1.232 1.66-2.82 1.66-4.556 0-1.538-.494-2.958-1.327-4.12h.007c0 0-2.158-5.08-9.379-5.08 0 0 2.719 1.117 2.791 2.159 0 0-3.277-.935-6.27.394l2.943.58-5.256 3.673h2.619l-3.164 2.223"/><path fill="#c7fbff" d="m76.14 38.642l2.274 1.598h-1.884l3.748 2.619c.081.06.162.119.248.173l.342.24-2.896.57c2.151.956 4.507.283 4.507.283-.051.748-2.01 1.55-2.01 1.55 5.19 0 6.741-3.65 6.741-3.65l-.023.004c.744-.886 1.193-2.026 1.193-3.275 0-1.105-.355-2.126-.954-2.961h.005c0 0-1.551-3.652-6.741-3.652 0 0 1.955.803 2.01 1.552 0 0-2.355-.671-4.508.284l2.117.416-3.779 2.641h1.884l-2.274 1.598"/></svg>