<?xml version="1.0" encoding="iso-8859-1"?>
<!-- Generator: Adobe Illustrator 19.0.0, SVG Export Plug-In . SVG Version: 6.00 Build 0)  -->
<svg version="1.1" id="Capa_1" xmlns="http://www.w3.org/2000/svg" xmlns:xlink="http://www.w3.org/1999/xlink" x="0px" y="0px"
	 viewBox="0 0 512 512" style="enable-background:new 0 0 512 512;" xml:space="preserve">
<g>
	<path style="fill:#DC6C33;" d="M52.966,0h406.069C488.287,0,512,23.713,512,52.966v406.069C512,488.287,488.287,512,459.034,512
		H52.966C23.713,512,0,488.287,0,459.034V52.966C0,23.713,23.713,0,52.966,0z"/>
	<g>
		<circle style="fill:#FAEDBD;" cx="66.207" cy="66.207" r="22.069"/>
		<circle style="fill:#FAEDBD;" cx="445.793" cy="66.207" r="22.069"/>
		<circle style="fill:#FAEDBD;" cx="66.207" cy="445.793" r="22.069"/>
		<circle style="fill:#FAEDBD;" cx="445.793" cy="445.793" r="22.069"/>
	</g>
	<path id="SVGCleanerId_0" style="fill:#FAEDBD;" d="M204.69,326.621h86.621c9.751,0,17.655-7.905,17.655-17.655v-27.997
		c0-4.682,1.86-9.173,5.171-12.484l7.313-7.313c3.311-3.311,7.802-5.171,12.484-5.171h29.512c4.682,0,9.173-1.86,12.484-5.171
		l33.796-33.796c3.311-3.311,5.171-7.802,5.171-12.484v-73.65c0-4.682-1.86-9.173-5.171-12.484L375.93,84.619
		c-3.311-3.311-7.802-5.171-12.484-5.171H157.382c-4.682,0-9.173,1.86-12.484,5.171l-33.796,33.796
		c-3.311,3.311-5.171,7.802-5.171,12.484v54.48c0,9.751,7.904,17.655,17.655,17.655h35.31c9.751,0,17.655-7.904,17.655-17.655
		v-19.17c0-4.682,1.86-9.173,5.171-12.484l7.313-7.313c3.311-3.311,7.802-5.171,12.484-5.171h108.96
		c4.682,0,9.173,1.86,12.484,5.171l7.313,7.313c3.311,3.311,5.171,7.802,5.171,12.484v27.997c0,9.751-7.905,17.655-17.655,17.655
		h-45.652c-4.682,0-9.173,1.86-12.484,5.171l-51.451,51.451c-3.311,3.311-5.171,7.802-5.171,12.484v45.652"/>
	<path id="SVGCleanerId_1" style="fill:#FAEDBD;" d="M220.69,370.759h70.621c9.751,0,17.655,7.905,17.655,17.655v35.31
		c0,9.751-7.905,17.655-17.655,17.655H220.69c-9.751,0-17.655-7.904-17.655-17.655v-35.31
		C203.034,378.663,210.939,370.759,220.69,370.759z"/>
	<path style="fill:#F4CD1E;" d="M52.966,0h406.069C488.287,0,512,23.713,512,52.966v406.069C512,488.287,488.287,512,459.034,512
		H52.966C23.713,512,0,488.287,0,459.034V52.966C0,23.713,23.713,0,52.966,0z"/>
	<g>
		<circle style="fill:#FAEDBD;" cx="66.207" cy="66.207" r="22.069"/>
		<circle style="fill:#FAEDBD;" cx="445.793" cy="66.207" r="22.069"/>
		<circle style="fill:#FAEDBD;" cx="66.207" cy="445.793" r="22.069"/>
		<circle style="fill:#FAEDBD;" cx="445.793" cy="445.793" r="22.069"/>
	</g>
	<g>
		<path id="SVGCleanerId_0_1_" style="fill:#FAEDBD;" d="M204.69,326.621h86.621c9.751,0,17.655-7.905,17.655-17.655v-27.997
			c0-4.682,1.86-9.173,5.171-12.484l7.313-7.313c3.311-3.311,7.802-5.171,12.484-5.171h29.512c4.682,0,9.173-1.86,12.484-5.171
			l33.796-33.796c3.311-3.311,5.171-7.802,5.171-12.484v-73.65c0-4.682-1.86-9.173-5.171-12.484L375.93,84.619
			c-3.311-3.311-7.802-5.171-12.484-5.171H157.382c-4.682,0-9.173,1.86-12.484,5.171l-33.796,33.796
			c-3.311,3.311-5.171,7.802-5.171,12.484v54.48c0,9.751,7.904,17.655,17.655,17.655h35.31c9.751,0,17.655-7.904,17.655-17.655
			v-19.17c0-4.682,1.86-9.173,5.171-12.484l7.313-7.313c3.311-3.311,7.802-5.171,12.484-5.171h108.96
			c4.682,0,9.173,1.86,12.484,5.171l7.313,7.313c3.311,3.311,5.171,7.802,5.171,12.484v27.997c0,9.751-7.905,17.655-17.655,17.655
			h-45.652c-4.682,0-9.173,1.86-12.484,5.171l-51.451,51.451c-3.311,3.311-5.171,7.802-5.171,12.484v45.652"/>
	</g>
	<g>
		<path id="SVGCleanerId_1_1_" style="fill:#FAEDBD;" d="M220.69,370.759h70.621c9.751,0,17.655,7.905,17.655,17.655v35.31
			c0,9.751-7.905,17.655-17.655,17.655H220.69c-9.751,0-17.655-7.904-17.655-17.655v-35.31
			C203.034,378.663,210.939,370.759,220.69,370.759z"/>
	</g>
</g>
<g>
</g>
<g>
</g>
<g>
</g>
<g>
</g>
<g>
</g>
<g>
</g>
<g>
</g>
<g>
</g>
<g>
</g>
<g>
</g>
<g>
</g>
<g>
</g>
<g>
</g>
<g>
</g>
<g>
</g>
</svg>
