<?xml version="1.0" encoding="iso-8859-1"?>
<!-- Generator: Adobe Illustrator 19.0.0, SVG Export Plug-In . SVG Version: 6.00 Build 0)  -->
<svg version="1.1" id="Capa_1" xmlns="http://www.w3.org/2000/svg" xmlns:xlink="http://www.w3.org/1999/xlink" x="0px" y="0px"
	 viewBox="0 0 512 512" style="enable-background:new 0 0 512 512;" xml:space="preserve">
<circle style="fill:#FFEB50;" cx="256" cy="256" r="256"/>
<path style="fill:#F7D139;" d="M512,256c0-6.342-0.24-12.627-0.693-18.854l-114.11-114.11L72.224,358.258L223.976,510.01
	C234.467,511.319,245.154,512,256,512C397.385,512,512,397.385,512,256z"/>
<path style="fill:#666666;" d="M451.031,312.566l-29.899-147.882c-8.72-43.127-52.194-69.803-94.592-58.043l0,0
	c-13.401,3.717-24.82,10.74-33.773,19.86h-73.532c-8.954-9.12-20.373-16.143-33.773-19.86l0,0
	c-42.399-11.76-85.873,14.916-94.592,58.043L60.969,312.566c-5.733,28.355,11.426,56.319,39.302,64.052l0,0
	c25.241,7.002,51.924-4.724,63.837-28.053l42.541-83.305h98.703l42.541,83.305c11.913,23.328,38.596,35.054,63.837,28.053l0,0
	C439.606,368.885,456.764,340.921,451.031,312.566z"/>
<g>
	<path style="fill:#4D4D4D;" d="M451.031,312.565l-29.899-147.882c-8.719-43.127-52.194-69.803-94.592-58.043l0,0
		c-13.401,3.717-24.82,10.74-33.773,19.86h-36.814v138.76h49.399l42.541,83.305c11.913,23.329,38.596,35.055,63.837,28.053
		C439.606,368.885,456.764,340.921,451.031,312.565z"/>
	<circle style="fill:#4D4D4D;" cx="206.65" cy="265.26" r="33.35"/>
</g>
<circle style="fill:#333333;" cx="303.86" cy="265.26" r="33.35"/>
<polygon style="fill:#999999;" points="194.821,173.149 173.032,173.149 173.032,151.36 137.887,151.36 137.887,173.148 
	116.096,173.147 116.096,208.292 137.887,208.292 137.887,230.085 173.032,230.085 173.032,208.293 194.821,208.294 "/>
<g>
	<circle style="fill:#808080;" cx="353.09" cy="163.38" r="15.875"/>
	<circle style="fill:#808080;" cx="387.75" cy="195.13" r="15.875"/>
	<circle style="fill:#808080;" cx="320.61" cy="195.86" r="15.875"/>
	<circle style="fill:#808080;" cx="355.28" cy="227.61" r="15.875"/>
</g>
<g>
</g>
<g>
</g>
<g>
</g>
<g>
</g>
<g>
</g>
<g>
</g>
<g>
</g>
<g>
</g>
<g>
</g>
<g>
</g>
<g>
</g>
<g>
</g>
<g>
</g>
<g>
</g>
<g>
</g>
</svg>
