<?xml version="1.0" encoding="iso-8859-1"?>
<!-- Generator: Adobe Illustrator 19.0.0, SVG Export Plug-In . SVG Version: 6.00 Build 0)  -->
<svg version="1.1" id="Capa_1" xmlns="http://www.w3.org/2000/svg" xmlns:xlink="http://www.w3.org/1999/xlink" x="0px" y="0px"
	 viewBox="0 0 498.599 498.599" style="enable-background:new 0 0 498.599 498.599;" xml:space="preserve">
<g transform="translate(-1)">
	<g>
		<g>
			<path style="fill:#4F6F7F;" d="M96.998,302.529l100.074,100.074c9.997,9.997,9.997,26.207,0,36.204l-0.965,0.965
				c-9.997,9.997-26.207,9.997-36.204,0L59.829,339.698c-9.997-9.997-9.997-26.207,0-36.204l0.965-0.965
				C70.792,292.531,87.001,292.531,96.998,302.529z"/>
			<path style="fill:#4F6F7F;" d="M38.221,404.813l56.551,56.551c8.331,8.331,8.331,21.839,0,30.17l-0.803,0.803
				c-8.331,8.331-21.839,8.331-30.17,0L7.248,435.785c-8.331-8.331-8.331-21.839,0-30.17l0.803-0.803
				C16.382,396.481,29.89,396.481,38.221,404.813z"/>
		</g>
		
			<rect x="53.069" y="380.777" transform="matrix(-0.7071 -0.7071 0.7071 -0.7071 -140.5146 764.6714)" style="fill:#EC9130;" width="70.085" height="61.321"/>
	</g>
	<path id="SVGCleanerId_0" style="fill:#A5B4B4;" d="M190.385,395.951l261.518-152.94c4.464-2.61,7.546-7.059,8.422-12.155
		l35.581-206.912c0.964-5.608-0.855-11.335-4.878-15.358c-4.024-4.024-9.751-5.843-15.358-4.878L268.757,39.288
		c-5.096,0.876-9.545,3.959-12.155,8.422l-152.94,261.518L190.385,395.951z"/>
	<path style="fill:none;stroke:#000000;stroke-width:2;stroke-linecap:round;stroke-linejoin:round;" d="M147.023,352.59
		L491.065,8.549"/>
	<g>
		<path style="fill:#336A93;" d="M38.221,404.813l56.551,56.551c8.331,8.331,8.331,21.839,0,30.17l-0.803,0.803
			c-8.331,8.331-21.839,8.331-30.17,0L7.248,435.785c-8.331-8.331-8.331-21.839,0-30.17l0.803-0.803
			C16.382,396.481,29.89,396.481,38.221,404.813z"/>
		
			<rect x="53.069" y="380.777" transform="matrix(-0.7071 -0.7071 0.7071 -0.7071 -140.5146 764.6714)" style="fill:#5496CE;" width="70.085" height="61.321"/>
	</g>
	<g>
		<path id="SVGCleanerId_0_1_" style="fill:#A5B4B4;" d="M190.385,395.951l261.518-152.94c4.464-2.61,7.546-7.059,8.422-12.155
			l35.581-206.912c0.964-5.608-0.855-11.335-4.878-15.358c-4.024-4.024-9.751-5.843-15.358-4.878L268.757,39.288
			c-5.096,0.876-9.545,3.959-12.155,8.422l-152.94,261.518L190.385,395.951z"/>
	</g>
	<g>
		<path style="fill:#717275;" d="M147.025,361.122c-3.451-0.001-6.562-2.08-7.882-5.268c-1.32-3.188-0.591-6.858,1.849-9.298
			L485.033,2.514c3.332-3.332,8.735-3.332,12.067,0s3.332,8.735,0,12.067L153.058,358.622
			C151.46,360.225,149.289,361.124,147.025,361.122z"/>
		<path style="fill:#336A93;" d="M96.998,302.529l100.074,100.074c9.997,9.997,9.997,26.207,0,36.204l-0.965,0.965
			c-9.997,9.997-26.207,9.997-36.204,0L59.829,339.698c-9.997-9.997-9.997-26.207,0-36.204l0.965-0.965
			C70.792,292.531,87.001,292.531,96.998,302.529z"/>
	</g>
</g>
<g>
</g>
<g>
</g>
<g>
</g>
<g>
</g>
<g>
</g>
<g>
</g>
<g>
</g>
<g>
</g>
<g>
</g>
<g>
</g>
<g>
</g>
<g>
</g>
<g>
</g>
<g>
</g>
<g>
</g>
</svg>
