<svg xmlns="http://www.w3.org/2000/svg" viewBox="0 0 100 100" enable-background="new 0 0 100 100"><circle cx="50" cy="50" r="50" fill="#518ebc"/><path d="m1 40.3c-.6 3.2-1 6.4-1 9.7 0 27.6 22.4 50 50 50 3.3 0 6.6-.3 9.7-1l24-24-67.5-50-15.2 15.3" fill="#417ca5"/><path d="M16.2,86.8c1.6,1.5,3.3,2.8,5.1,4.1V25h-5.1V86.8z" fill="#d5873a"/><path fill="#fff" d="m21.3 25h62.5v50h-62.5z"/><g fill="#2b3447"><path d="m71.3 62.5h12.5v12.5h-12.5z"/><path d="m58.8 50h12.5v12.5h-12.5z"/><path d="m71.3 37.5h12.5v12.5h-12.5z"/><path d="m58.8 25h12.5v12.5h-12.5z"/><path d="m46.3 62.5h12.5v12.5h-12.5z"/><path d="m33.8 50h12.5v12.5h-12.5z"/><path d="m46.3 37.5h12.5v12.5h-12.5z"/><path d="m33.8 25h12.5v12.5h-12.5z"/><path d="m21.3 62.5h12.5v12.5h-12.5z"/><path d="m21.3 37.5h12.5v12.5h-12.5z"/></g></svg>