<svg xmlns="http://www.w3.org/2000/svg" viewBox="0 0 100 100" enable-background="new 0 0 100 100"><circle cx="50" cy="50" r="50" fill="#2b3447"/><path d="m75.6 75.4l-3.2 3.2.9-5.5-4.7 4.7-1-3.9-1.3-27.8-39.8-16.6-26.2 26.2c2.8 24.9 24 44.3 49.7 44.3 3.5 0 6.9-.4 10.2-1l17.8-17.8-2.3-1.9v-3.9z" opacity=".5" fill="#131a26"/><circle cx="50" cy="50" r="31.2" fill="#daebf7"/><path d="m69.1 55.9c2.8-9.3 7.5-16 10.5-15.1.1 0 .2.1.2.1-1.2-3.8-3.1-7.4-5.6-10.5 0 .1 0 .2-.1.3-.9 3-9.1 3.1-18.4.3-9.3-2.8-16-7.5-15.1-10.5 0-.1.1-.2.1-.3-3.8 1.2-7.4 3.1-10.5 5.6.1 0 .2 0 .3 0 3 .9 3.1 9.1.3 18.4-2.8 9.3-7.5 16-10.5 15.1-.1 0-.1 0-.2-.1 1.2 3.8 3 7.3 5.5 10.3 0 0 0-.1 0-.1.9-3 9.1-3.1 18.4-.3 9.3 2.8 16 7.5 15.1 10.5 0 0 0 .1-.1.1 3.8-1.2 7.3-3 10.3-5.5-.1 0-.1 0-.2 0-2.7-.8-2.8-9.1 0-18.3m-23.1 7.3c-7.3-2.2-11.4-9.9-9.2-17.2 2.2-7.3 9.9-11.4 17.2-9.2 7.3 2.2 11.4 9.9 9.2 17.2-2.3 7.3-9.9 11.4-17.2 9.2" fill="#7a909e"/><g fill="#25313b"><path d="m23.4 66.3c1.1-1.8 3.3-2.9 3.4-3 1.3-.4 2.9-.6 4.9-.7 1.7 0 3.6.1 5.6.4-2.7-2.6-4.5-6-5.2-9.7-.9 1.8-1.8 3.4-2.8 4.8-1.1 1.6-2.2 2.8-3.3 3.7 0 0-2.2 1.2-4.4 1.2.6 1.2 1.2 2.3 1.8 3.3"/><path d="m73.2 36.7c-1.3.4-3 .7-5 .7-1.7 0-3.5-.1-5.4-.4 2.6 2.6 4.4 6 5.1 9.6.9-1.8 1.8-3.3 2.7-4.7 1.2-1.7 2.3-2.9 3.4-3.8 0 0 2.2-1.2 4.4-1.2-.5-1.1-1.1-2.2-1.8-3.3-1.2 2-3.4 3.1-3.4 3.1"/><path d="m36.7 26.9c.4 1.3.7 3 .7 5 0 1.7-.1 3.5-.4 5.4 2.6-2.6 5.9-4.4 9.6-5.1-1.7-.8-3.3-1.8-4.7-2.7-1.7-1.2-2.9-2.3-3.8-3.4 0 0-1.2-2.2-1.2-4.4-1.1.5-2.2 1.1-3.3 1.8 1.9 1.1 3.1 3.4 3.1 3.4"/><path d="m63.3 73.2c0 0 0 0 0 0-.4-1.3-.6-2.9-.7-4.9 0-1.7.1-3.6.4-5.5-2.6 2.7-6.1 4.5-9.8 5.2 1.8.9 3.4 1.8 4.8 2.8 1.6 1.1 2.8 2.2 3.7 3.3 0 .1 1.2 2.2 1.2 4.4 1.1-.5 2.2-1.1 3.3-1.8-1.7-1.2-2.8-3.2-2.9-3.5"/></g><g fill="#9bb239"><path d="m70.4 79.2l-3.8-10.3-2.4 7.9-3.2-4.6v4.5l-4.8-7.8-4.7 7.8v-4.5l-3.2 4.6-2.5-7.9-3.8 10.3-2.9-4-2.1 4.5-2.8-7.6-1.8 5.9-2.3-3.4v3.3l-3.5-5.8v4.5 4.6h12.5 17.1 17.1v-8.1z"/><path d="m26.6 81.2h-4.5l2.2-5.8z"/><path d="m73.3 81.2h4.6l-2.3-5.8z"/></g></svg>