<?xml version="1.0" encoding="iso-8859-1"?>
<!-- Generator: Adobe Illustrator 19.0.0, SVG Export Plug-In . SVG Version: 6.00 Build 0)  -->
<svg version="1.1" id="Capa_1" xmlns="http://www.w3.org/2000/svg" xmlns:xlink="http://www.w3.org/1999/xlink" x="0px" y="0px"
	 viewBox="0 0 512 512" style="enable-background:new 0 0 512 512;" xml:space="preserve">
<g>
	<g>
		<polygon style="fill:#FFFFFF;" points="256,146.282 256,256 219.427,256 219.427,292.573 146.282,292.573 146.282,256 
			109.718,256 109.718,146.282 146.282,146.282 146.282,109.718 219.427,109.718 219.427,146.282 		"/>
		<polygon style="fill:#FFFFFF;" points="219.454,146.273 219.454,109.727 146.273,109.727 146.273,146.273 109.727,146.273 
			109.727,256 146.273,256 146.273,292.546 219.454,292.546 219.454,256 256,256 256,146.273 		"/>
		<polygon style="fill:#FFFFFF;" points="475.454,146.273 475.454,256 438.819,256 438.819,292.546 365.727,292.546 365.727,256 
			329.181,256 329.181,146.273 365.727,146.273 365.727,109.727 438.819,109.727 438.819,146.273 		"/>
	</g>
	<rect id="SVGCleanerId_0" x="146.282" y="219.427" style="fill:#336A93;" width="73.145" height="73.145"/>
	<rect id="SVGCleanerId_1" x="365.727" y="219.427" style="fill:#336A93;" width="73.145" height="73.145"/>
	<g>
		<polygon style="fill:#FFFFFF;" points="256,146.282 256,256 219.427,256 219.427,292.573 146.282,292.573 146.282,256 
			109.718,256 109.718,146.282 146.282,146.282 146.282,109.718 219.427,109.718 219.427,146.282 		"/>
		<polygon style="fill:#FFFFFF;" points="219.454,146.273 219.454,109.727 146.273,109.727 146.273,146.273 109.727,146.273 
			109.727,256 146.273,256 146.273,292.546 219.454,292.546 219.454,256 256,256 256,146.273 		"/>
	</g>
	<rect x="438.819" y="109.727" style="fill:#CD4F38;" width="36.634" height="36.546"/>
	<polygon style="fill:#FFFFFF;" points="475.454,146.273 475.454,256 438.819,256 438.819,292.546 365.727,292.546 365.727,256 
		329.181,256 329.181,146.273 365.727,146.273 365.727,109.727 438.819,109.727 438.819,146.273 	"/>
	<path style="fill:#CD4F38;" d="M475.454,182.819V256h-36.597v-36.572h-73.143V256h-36.534V146.273h36.546v-36.546h73.092V73.181
		h-36.546V36.546h-36.546V0H146.273v36.546h-36.546v36.634H73.181v36.546H36.546v73.092H0v292.634h36.546V512h73.181v-36.546h36.546
		v-36.634h36.546v36.634h36.634V512h73.092v-36.546h36.634v-36.634h36.546v36.634h36.546V512h73.181v-36.546H512V182.819H475.454z
		 M256,256h-36.546v36.546h-0.025v-73.118h-73.143v73.118h-0.012V256h-36.546V146.273h36.546v-36.546h73.181v36.546H256V256z"/>
	<g>
		<rect id="SVGCleanerId_0_1_" x="146.282" y="219.427" style="fill:#336A93;" width="73.145" height="73.145"/>
	</g>
	<g>
		<rect id="SVGCleanerId_1_1_" x="365.727" y="219.427" style="fill:#336A93;" width="73.145" height="73.145"/>
	</g>
</g>
<g>
</g>
<g>
</g>
<g>
</g>
<g>
</g>
<g>
</g>
<g>
</g>
<g>
</g>
<g>
</g>
<g>
</g>
<g>
</g>
<g>
</g>
<g>
</g>
<g>
</g>
<g>
</g>
<g>
</g>
</svg>
